<?xml version="1.0" encoding="UTF-8"?>
<!-- Generator: visioncortex VTracer -->
<svg id="svg" version="1.1" xmlns="http://www.w3.org/2000/svg" style="display: block; background: rgb(255, 255, 255);" viewBox="0 0 2015 2015"><path d="M0 0 C15.84 0 31.68 0 48 0 C56.58 0.66 65.16 1.32 74 2 C83.57 3.32 93.14 4.64 103 6 C112.24 7.98 121.48 9.96 131 12 C143.375 15.465 143.375 15.465 156 19 C165.24 22.3 174.48 25.6 184 29 C191.92 32.63 199.84 36.26 208 40 C214.93 43.63 221.86 47.26 229 51 C239.89 57.93 239.89 57.93 251 65 C256.61 68.96 262.22 72.92 268 77 C272.62 80.63 277.24 84.26 282 88 C285.3 90.97 288.6 93.94 292 97 C295.96 100.465 295.96 100.465 300 104 C303.96 107.96 303.96 107.96 308 112 C310.31 113.98 312.62 115.96 315 118 C317.31 120.64 319.62 123.28 322 126 C326.29 130.62 330.58 135.24 335 140 C340.445 146.93 340.445 146.93 346 154 C349.3 158.29 352.6 162.58 356 167 C360.29 173.6 364.58 180.2 369 187 C373.95 195.58 378.9 204.16 384 213 C388.455 222.405 388.455 222.405 393 232 C396.3 240.25 399.6 248.5 403 257 C405.97 266.24 408.94 275.48 412 285 C414.31 294.9 416.62 304.8 419 315 C420.32 322.92 421.64 330.84 423 339 C423.99 349.23 424.98 359.46 426 370 C426.33 377.59 426.66 385.18 427 393 C427 399.6 427 406.2 427 413 C426.34 424.55 425.68 436.1 425 448 C423.68 458.23 422.36 468.46 421 479 C418.03 493.355 418.03 493.355 415 508 C412.03 518.89 412.03 518.89 409 530 C405.04 541.88 405.04 541.88 401 554 C397.37 562.58 393.74 571.16 390 580 C386.7 586.6 383.4 593.2 380 600 C376.7 605.61 373.4 611.22 370 617 C365.38 623.93 360.76 630.86 356 638 C352.04 643.28 348.08 648.56 344 654 C340.37 658.29 336.74 662.58 333 667 C330.03 670.3 327.06 673.6 324 677 C321.69 679.64 319.38 682.28 317 685 C311.72 690.28 306.44 695.56 301 701 C298.36 703.31 295.72 705.62 293 708 C288.38 711.96 283.76 715.92 279 720 C272.4 724.95 265.8 729.9 259 735 C254.05 738.3 249.1 741.6 244 745 C239.71 747.64 235.42 750.28 231 753 C223.08 757.29 215.16 761.58 207 766 C194.625 771.445 194.625 771.445 182 777 C172.76 780.3 163.52 783.6 154 787 C144.43 789.64 134.86 792.28 125 795 C112.13 797.475 112.13 797.475 99 800 C88.44 801.32 77.88 802.64 67 804 C61.72 804.33 56.44 804.66 51 805 C32.19 805 13.38 805 -6 805 C-13.92 804.34 -21.84 803.68 -30 803 C-39.24 801.68 -48.48 800.36 -58 799 C-65.92 797.35 -73.84 795.7 -82 794 C-97.345 789.545 -97.345 789.545 -113 785 C-124.88 780.545 -124.88 780.545 -137 776 C-146.9 771.545 -146.9 771.545 -157 767 C-165.91 762.38 -174.82 757.76 -184 753 C-191.59 748.05 -199.18 743.1 -207 738 C-211.62 734.7 -216.24 731.4 -221 728 C-226.28 723.71 -231.56 719.42 -237 715 C-241.95 710.545 -241.95 710.545 -247 706 C-249.64 703.69 -252.28 701.38 -255 699 C-262.26 691.74 -269.52 684.48 -277 677 C-279.97 673.37 -282.94 669.74 -286 666 C-289.96 661.545 -289.96 661.545 -294 657 C-301.425 647.1 -301.425 647.1 -309 637 C-312.3 632.05 -315.6 627.1 -319 622 C-321.97 617.05 -324.94 612.1 -328 607 C-331.96 599.41 -335.92 591.82 -340 584 C-342.97 577.73 -345.94 571.46 -349 565 C-352.3 556.09 -355.6 547.18 -359 538 C-361.31 530.08 -363.62 522.16 -366 514 C-368.31 503.44 -370.62 492.88 -373 482 C-374.32 472.43 -375.64 462.86 -377 453 C-377.66 444.42 -378.32 435.84 -379 427 C-379 410.83 -379 394.66 -379 378 C-378.01 366.45 -377.02 354.9 -376 343 C-373.525 328.15 -373.525 328.15 -371 313 C-367.535 298.15 -367.535 298.15 -364 283 C-360.7 273.1 -357.4 263.2 -354 253 C-350.7 245.08 -347.4 237.16 -344 229 C-341.03 222.73 -338.06 216.46 -335 210 C-330.38 202.08 -325.76 194.16 -321 186 C-316.05 178.575 -316.05 178.575 -311 171 C-307.7 166.38 -304.4 161.76 -301 157 C-296.71 151.72 -292.42 146.44 -288 141 C-285.03 137.7 -282.06 134.4 -279 131 C-276.69 128.36 -274.38 125.72 -272 123 C-265.07 116.07 -258.14 109.14 -251 102 C-248.36 99.69 -245.72 97.38 -243 95 C-238.71 91.37 -234.42 87.74 -230 84 C-224.72 80.04 -219.44 76.08 -214 72 C-208.06 68.04 -202.12 64.08 -196 60 C-191.05 57.03 -186.1 54.06 -181 51 C-175.06 47.535 -175.06 47.535 -169 44 C-155.14 37.565 -155.14 37.565 -141 31 C-128.13 26.05 -128.13 26.05 -115 21 C-106.09 18.36 -97.18 15.72 -88 13 C-74.635 10.03 -74.635 10.03 -61 7 C-52.42 5.68 -43.84 4.36 -35 3 C-26.09 2.01 -26.09 2.01 -17 1 C-8.585 0.505 -8.585 0.505 0 0 Z M5 192 C-7.375 193.485 -7.375 193.485 -20 195 C-27.92 196.98 -35.84 198.96 -44 201 C-50.6 203.64 -57.2 206.28 -64 209 C-71.92 212.96 -71.92 212.96 -80 217 C-87.425 221.95 -87.425 221.95 -95 227 C-98.3 229.64 -101.6 232.28 -105 235 C-108.96 238.63 -112.92 242.26 -117 246 C-120.63 249.63 -124.26 253.26 -128 257 C-134.435 265.415 -134.435 265.415 -141 274 C-143.97 278.62 -146.94 283.24 -150 288 C-153.96 295.59 -157.92 303.18 -162 311 C-165.465 320.405 -165.465 320.405 -169 330 C-170.98 337.92 -172.96 345.84 -175 354 C-175.99 360.27 -176.98 366.54 -178 373 C-178.33 376.3 -178.66 379.6 -179 383 C-179 396.2 -179 409.4 -179 423 C-178.01 431.25 -177.02 439.5 -176 448 C-174.02 456.25 -172.04 464.5 -170 473 C-168.35 477.95 -166.7 482.9 -165 488 C-162.36 493.94 -159.72 499.88 -157 506 C-154.69 510.29 -152.38 514.58 -150 519 C-145.05 526.425 -145.05 526.425 -140 534 C-136.37 538.62 -132.74 543.24 -129 548 C-125.04 552.29 -121.08 556.58 -117 561 C-113.04 564.63 -109.08 568.26 -105 572 C-100.05 575.63 -95.1 579.26 -90 583 C-85.05 585.97 -80.1 588.94 -75 592 C-69.39 594.64 -63.78 597.28 -58 600 C-46.12 603.96 -46.12 603.96 -34 608 C-27.4 609.32 -20.8 610.64 -14 612 C-8.39 612.66 -2.78 613.32 3 614 C16.53 614 30.06 614 44 614 C57.365 612.02 57.365 612.02 71 610 C79.25 607.69 87.5 605.38 96 603 C102.93 600.03 109.86 597.06 117 594 C122.28 591.03 127.56 588.06 133 585 C137.95 581.37 142.9 577.74 148 574 C151.3 571.03 154.6 568.06 158 565 C160.64 562.69 163.28 560.38 166 558 C170.95 552.555 170.95 552.555 176 547 C180.29 541.39 184.58 535.78 189 530 C192.96 523.4 196.92 516.8 201 510 C203.64 504.39 206.28 498.78 209 493 C211.97 484.09 214.94 475.18 218 466 C219.65 458.08 221.3 450.16 223 442 C223.66 435.73 224.32 429.46 225 423 C225 410.13 225 397.26 225 384 C224.01 375.75 223.02 367.5 222 359 C220.02 350.75 218.04 342.5 216 334 C213.69 327.4 211.38 320.8 209 314 C204.05 303.605 204.05 303.605 199 293 C195.7 287.72 192.4 282.44 189 277 C186.03 273.04 183.06 269.08 180 265 C176.04 260.38 172.08 255.76 168 251 C163.71 246.71 159.42 242.42 155 238 C148.07 232.555 148.07 232.555 141 227 C134.73 223.04 128.46 219.08 122 215 C115.73 212.03 109.46 209.06 103 206 C96.07 203.69 89.14 201.38 82 199 C73.09 197.02 73.09 197.02 64 195 C51.625 193.515 51.625 193.515 39 192 C27.78 192 16.56 192 5 192 Z " transform="translate(984,595)" style="fill: #000000;"/><path d="M0 0 C20.46 0 40.92 0 62 0 C80.15 0.99 98.3 1.98 117 3 C128.55 4.32 140.1 5.64 152 7 C165.2 8.98 178.4 10.96 192 13 C205.2 15.64 218.4 18.28 232 21 C243.55 23.97 255.1 26.94 267 30 C277.23 32.97 287.46 35.94 298 39 C311.2 43.62 324.4 48.24 338 53 C349.22 57.62 360.44 62.24 372 67 C380.58 70.96 389.16 74.92 398 79 C413.84 86.92 413.84 86.92 430 95 C436.93 98.96 443.86 102.92 451 107 C457.6 110.96 464.2 114.92 471 119 C481.89 125.93 481.89 125.93 493 133 C497.62 136.3 502.24 139.6 507 143 C512.61 146.96 518.22 150.92 524 155 C529.94 159.62 535.88 164.24 542 169 C544.97 171.31 547.94 173.62 551 176 C557.435 181.445 557.435 181.445 564 187 C567.63 189.97 571.26 192.94 575 196 C575.33 196.66 575.66 197.32 576 198 C572.535 201.96 572.535 201.96 569 206 C565.04 210.29 561.08 214.58 557 219 C553.37 222.96 549.74 226.92 546 231 C541.545 235.95 541.545 235.95 537 241 C533.04 245.29 529.08 249.58 525 254 C520.545 258.95 520.545 258.95 516 264 C510.06 270.435 510.06 270.435 504 277 C500.37 280.96 496.74 284.92 493 289 C488.545 293.95 488.545 293.95 484 299 C478.06 305.435 478.06 305.435 472 312 C468.37 315.96 464.74 319.92 461 324 C456.545 328.95 456.545 328.95 452 334 C448.37 337.96 444.74 341.92 441 346 C437.37 349.96 433.74 353.92 430 358 C425.545 362.95 425.545 362.95 421 368 C417.37 371.96 413.74 375.92 410 380 C406.37 383.96 402.74 387.92 399 392 C395.37 395.96 391.74 399.92 388 404 C385.36 406.97 382.72 409.94 380 413 C378.68 412.67 377.36 412.34 376 412 C369.4 407.05 362.8 402.1 356 397 C350.06 393.04 344.12 389.08 338 385 C331.73 381.04 325.46 377.08 319 373 C311.41 368.71 303.82 364.42 296 360 C290.39 357.03 284.78 354.06 279 351 C268.11 346.05 268.11 346.05 257 341 C244.625 336.05 244.625 336.05 232 331 C222.595 327.535 222.595 327.535 213 324 C196.17 319.05 196.17 319.05 179 314 C167.12 311.36 155.24 308.72 143 306 C135.41 304.68 127.82 303.36 120 302 C112.08 301.01 104.16 300.02 96 299 C88.08 298.34 80.16 297.68 72 297 C64.08 296.67 56.16 296.34 48 296 C37.44 296 26.88 296 16 296 C5.11 296.66 -5.78 297.32 -17 298 C-33.335 299.98 -33.335 299.98 -50 302 C-61.88 303.98 -61.88 303.98 -74 306 C-90.83 309.96 -90.83 309.96 -108 314 C-119.88 317.96 -131.76 321.92 -144 326 C-153.57 329.96 -163.14 333.92 -173 338 C-182.9 342.95 -182.9 342.95 -193 348 C-199.93 351.96 -206.86 355.92 -214 360 C-217.96 362.64 -221.92 365.28 -226 368 C-231.61 371.96 -237.22 375.92 -243 380 C-249.93 385.445 -249.93 385.445 -257 391 C-261.62 394.96 -266.24 398.92 -271 403 C-273.31 405.31 -275.62 407.62 -278 410 C-280.64 412.31 -283.28 414.62 -286 417 C-288.64 419.64 -291.28 422.28 -294 425 C-297.465 428.96 -297.465 428.96 -301 433 C-305.95 438.445 -305.95 438.445 -311 444 C-314.63 448.62 -318.26 453.24 -322 458 C-325.3 462.29 -328.6 466.58 -332 471 C-334.64 474.96 -337.28 478.92 -340 483 C-344.29 489.93 -348.58 496.86 -353 504 C-357.29 511.92 -361.58 519.84 -366 528 C-369.63 536.25 -373.26 544.5 -377 553 C-379.97 560.92 -382.94 568.84 -386 577 C-388.97 586.9 -391.94 596.8 -395 607 C-397.64 619.21 -400.28 631.42 -403 644 C-404.65 656.87 -406.3 669.74 -408 683 C-408.66 692.24 -409.32 701.48 -410 711 C-410 726.18 -410 741.36 -410 757 C-409.34 767.89 -408.68 778.78 -408 790 C-406.02 806.335 -406.02 806.335 -404 823 C-402.35 832.24 -400.7 841.48 -399 851 C-396.69 860.9 -394.38 870.8 -392 881 C-388.7 891.56 -385.4 902.12 -382 913 C-378.04 922.9 -374.08 932.8 -370 943 C-366.37 950.59 -362.74 958.18 -359 966 C-355.7 971.94 -352.4 977.88 -349 984 C-345.04 990.27 -341.08 996.54 -337 1003 C-332.71 1008.94 -328.42 1014.88 -324 1021 C-320.37 1025.62 -316.74 1030.24 -313 1035 C-310.03 1038.3 -307.06 1041.6 -304 1045 C-301.69 1047.64 -299.38 1050.28 -297 1053 C-294.69 1055.31 -292.38 1057.62 -290 1060 C-288.35 1061.65 -286.7 1063.3 -285 1065 C-280.38 1069.62 -275.76 1074.24 -271 1079 C-265.555 1083.455 -265.555 1083.455 -260 1088 C-255.38 1091.63 -250.76 1095.26 -246 1099 C-241.38 1102.3 -236.76 1105.6 -232 1109 C-227.05 1112.3 -222.1 1115.6 -217 1119 C-210.73 1122.63 -204.46 1126.26 -198 1130 C-191.73 1133.3 -185.46 1136.6 -179 1140 C-171.41 1143.3 -163.82 1146.6 -156 1150 C-148.08 1152.97 -140.16 1155.94 -132 1159 C-123.42 1161.64 -114.84 1164.28 -106 1167 C-95.77 1169.31 -85.54 1171.62 -75 1174 C-65.43 1175.65 -55.86 1177.3 -46 1179 C-33.46 1180.32 -20.92 1181.64 -8 1183 C0.58 1183.33 9.16 1183.66 18 1184 C26.25 1184 34.5 1184 43 1184 C57.19 1183.34 71.38 1182.68 86 1182 C97.88 1180.68 109.76 1179.36 122 1178 C133.55 1176.02 145.1 1174.04 157 1172 C166.57 1169.69 176.14 1167.38 186 1165 C197.88 1161.535 197.88 1161.535 210 1158 C218.91 1155.03 218.91 1155.03 228 1152 C237.24 1148.37 246.48 1144.74 256 1141 C263.92 1137.37 271.84 1133.74 280 1130 C288.91 1125.38 297.82 1120.76 307 1116 C314.425 1111.545 314.425 1111.545 322 1107 C327.61 1103.37 333.22 1099.74 339 1096 C348.405 1089.565 348.405 1089.565 358 1083 C362.95 1079.04 367.9 1075.08 373 1071 C374.32 1070.01 375.64 1069.02 377 1068 C378.32 1068.33 379.64 1068.66 381 1069 C385.95 1074.28 390.9 1079.56 396 1085 C398.31 1087.64 400.62 1090.28 403 1093 C407.62 1097.95 412.24 1102.9 417 1108 C419.31 1110.64 421.62 1113.28 424 1116 C428.62 1120.95 433.24 1125.9 438 1131 C440.31 1133.64 442.62 1136.28 445 1139 C448.96 1143.29 452.92 1147.58 457 1152 C460.63 1155.96 464.26 1159.92 468 1164 C471.96 1168.29 475.92 1172.58 480 1177 C482.31 1179.64 484.62 1182.28 487 1185 C491.62 1189.95 496.24 1194.9 501 1200 C503.31 1202.64 505.62 1205.28 508 1208 C512.62 1212.95 517.24 1217.9 522 1223 C524.97 1226.3 527.94 1229.6 531 1233 C534.63 1236.96 538.26 1240.92 542 1245 C545.63 1248.96 549.26 1252.92 553 1257 C556.63 1260.96 560.26 1264.92 564 1269 C566.97 1272.3 569.94 1275.6 573 1279 C573.99 1280.65 574.98 1282.3 576 1284 C572.7 1286.97 569.4 1289.94 566 1293 C562.37 1295.97 558.74 1298.94 555 1302 C550.05 1305.96 545.1 1309.92 540 1314 C534.72 1317.96 529.44 1321.92 524 1326 C515.09 1332.435 515.09 1332.435 506 1339 C498.08 1344.28 490.16 1349.56 482 1355 C470.12 1362.425 470.12 1362.425 458 1370 C449.75 1374.62 441.5 1379.24 433 1384 C423.595 1388.95 423.595 1388.95 414 1394 C404.76 1398.62 395.52 1403.24 386 1408 C376.1 1412.29 366.2 1416.58 356 1421 C338.675 1427.435 338.675 1427.435 321 1434 C309.12 1437.96 297.24 1441.92 285 1446 C272.79 1449.3 260.58 1452.6 248 1456 C236.12 1458.64 224.24 1461.28 212 1464 C201.11 1465.98 190.22 1467.96 179 1470 C167.45 1471.65 155.9 1473.3 144 1475 C133.77 1475.99 123.54 1476.98 113 1478 C96.17 1478.99 79.34 1479.98 62 1481 C44.18 1481 26.36 1481 8 1481 C-4.87 1480.34 -17.74 1479.68 -31 1479 C-44.2 1477.68 -57.4 1476.36 -71 1475 C-82.55 1473.35 -94.1 1471.7 -106 1470 C-117.88 1467.69 -129.76 1465.38 -142 1463 C-156.52 1459.37 -171.04 1455.74 -186 1452 C-204.81 1446.06 -204.81 1446.06 -224 1440 C-239.84 1434.06 -239.84 1434.06 -256 1428 C-270.85 1421.565 -270.85 1421.565 -286 1415 C-296.89 1409.72 -307.78 1404.44 -319 1399 C-330.385 1392.565 -330.385 1392.565 -342 1386 C-349.26 1381.71 -356.52 1377.42 -364 1373 C-374.89 1365.74 -385.78 1358.48 -397 1351 C-403.27 1346.38 -409.54 1341.76 -416 1337 C-420.62 1333.37 -425.24 1329.74 -430 1326 C-437.92 1319.565 -437.92 1319.565 -446 1313 C-453.425 1306.565 -453.425 1306.565 -461 1300 C-464.96 1296.37 -468.92 1292.74 -473 1289 C-476.96 1285.37 -480.92 1281.74 -485 1278 C-494.57 1268.43 -504.14 1258.86 -514 1249 C-516.31 1246.36 -518.62 1243.72 -521 1241 C-524.96 1236.71 -528.92 1232.42 -533 1228 C-535.97 1224.37 -538.94 1220.74 -542 1217 C-546.62 1211.39 -551.24 1205.78 -556 1200 C-560.95 1193.4 -565.9 1186.8 -571 1180 C-574.96 1174.39 -578.92 1168.78 -583 1163 C-586.96 1157.06 -590.92 1151.12 -595 1145 C-599.29 1138.07 -603.58 1131.14 -608 1124 C-612.29 1116.41 -616.58 1108.82 -621 1101 C-625.95 1091.43 -630.9 1081.86 -636 1072 C-642.93 1056.655 -642.93 1056.655 -650 1041 C-654.95 1028.13 -659.9 1015.26 -665 1002 C-670.445 985.17 -670.445 985.17 -676 968 C-678.97 957.11 -681.94 946.22 -685 935 C-687.97 921.14 -690.94 907.28 -694 893 C-695.98 880.46 -697.96 867.92 -700 855 C-701.32 843.45 -702.64 831.9 -704 820 C-704.66 811.75 -705.32 803.5 -706 795 C-706.33 788.4 -706.66 781.8 -707 775 C-707 751.9 -707 728.8 -707 705 C-706.34 693.78 -705.68 682.56 -705 671 C-703.68 658.13 -702.36 645.26 -701 632 C-699.02 619.13 -697.04 606.26 -695 593 C-692.36 580.13 -689.72 567.26 -687 554 C-684.03 542.78 -681.06 531.56 -678 520 C-674.37 508.45 -670.74 496.9 -667 485 C-663.04 474.44 -659.08 463.88 -655 453 C-651.04 443.76 -647.08 434.52 -643 425 C-638.38 415.43 -633.76 405.86 -629 396 C-625.37 389.07 -621.74 382.14 -618 375 C-612.72 366.09 -607.44 357.18 -602 348 C-598.04 341.73 -594.08 335.46 -590 329 C-584.72 321.41 -579.44 313.82 -574 306 C-571.03 302.04 -568.06 298.08 -565 294 C-561.7 289.71 -558.4 285.42 -555 281 C-552.03 277.37 -549.06 273.74 -546 270 C-543.03 266.37 -540.06 262.74 -537 259 C-534.03 255.7 -531.06 252.4 -528 249 C-525.03 245.37 -522.06 241.74 -519 238 C-513.39 232.39 -507.78 226.78 -502 221 C-499.69 218.36 -497.38 215.72 -495 213 C-492.69 210.69 -490.38 208.38 -488 206 C-487.34 206 -486.68 206 -486 206 C-486 205.34 -486 204.68 -486 204 C-485.34 204 -484.68 204 -484 204 C-484 203.34 -484 202.68 -484 202 C-481.36 199.69 -478.72 197.38 -476 195 C-473.36 192.36 -470.72 189.72 -468 187 C-465.36 184.69 -462.72 182.38 -460 180 C-452.575 173.565 -452.575 173.565 -445 167 C-436.585 160.07 -436.585 160.07 -428 153 C-421.4 148.05 -414.8 143.1 -408 138 C-402.06 133.71 -396.12 129.42 -390 125 C-384.06 121.04 -378.12 117.08 -372 113 C-365.73 109.04 -359.46 105.08 -353 101 C-346.07 97.04 -339.14 93.08 -332 89 C-322.76 84.05 -313.52 79.1 -304 74 C-293.44 69.05 -282.88 64.1 -272 59 C-261.11 54.71 -250.22 50.42 -239 46 C-226.625 41.545 -226.625 41.545 -214 37 C-199.15 32.545 -199.15 32.545 -184 28 C-170.8 24.7 -157.6 21.4 -144 18 C-132.12 15.69 -120.24 13.38 -108 11 C-96.78 9.35 -85.56 7.7 -74 6 C-61.46 4.68 -48.92 3.36 -36 2 C-24.12 1.34 -12.24 0.68 0 0 Z " transform="translate(960,263)" style="fill: #000000;"/></svg>