<?xml version="1.0" standalone="no"?>
<!DOCTYPE svg PUBLIC "-//W3C//DTD SVG 20010904//EN"
 "http://www.w3.org/TR/2001/REC-SVG-20010904/DTD/svg10.dtd">
<svg version="1.0" xmlns="http://www.w3.org/2000/svg"
 width="5932.000000pt" height="3746.000000pt" viewBox="0 0 5932.000000 3746.000000"
 preserveAspectRatio="xMidYMid meet">

<g transform="translate(0.000000,3746.000000) scale(0.100000,-0.100000)"
fill="#000000" stroke="none">
<path d="M3 34095 l2 -2910 180 -135 c99 -74 319 -240 490 -367 645 -483 953
-738 1133 -936 329 -361 536 -790 620 -1284 32 -184 4 -251 -125 -299 -26 -10
-81 -40 -121 -67 -143 -95 -224 -100 -383 -26 l-94 44 -180 3 c-99 1 -189 5
-201 7 -20 4 -21 13 -27 132 -12 254 -67 436 -188 623 -68 104 -244 270 -478
450 -372 286 -427 342 -530 540 -33 63 -70 129 -81 145 l-20 30 0 -1366 0
-1366 125 -6 c974 -50 1888 -604 2410 -1462 290 -477 450 -992 484 -1560 5
-88 13 -168 16 -178 16 -39 49 -31 222 51 447 212 834 319 1278 353 745 56
1583 -201 2153 -660 693 -558 1092 -1471 1092 -2497 0 -686 -267 -1324 -802
-1914 -194 -214 -421 -404 -761 -635 -75 -51 -86 -69 -57 -100 12 -13 83 -66
158 -119 845 -589 1312 -1312 1437 -2221 23 -163 31 -565 16 -748 -42 -495
-193 -928 -467 -1342 -316 -477 -773 -854 -1314 -1083 -298 -126 -704 -220
-1025 -237 -60 -3 -138 -7 -173 -9 -90 -5 -415 21 -566 45 -324 52 -642 155
-963 310 -182 89 -187 91 -208 76 -21 -16 -34 -76 -35 -158 0 -37 -5 -113 -10
-170 -65 -644 -307 -1254 -692 -1742 -96 -121 -388 -415 -508 -511 -204 -163
-536 -356 -776 -451 -288 -114 -621 -189 -902 -202 l-132 -6 0 -1361 c0 -1515
-6 -1404 69 -1251 72 149 186 290 330 408 42 35 153 119 246 188 333 242 514
464 598 734 40 127 50 200 51 353 1 78 2 142 2 142 1 0 25 -5 55 -10 263 -50
441 -22 561 88 l43 40 190 -105 c318 -177 306 -162 281 -360 -64 -499 -317
-989 -740 -1430 -224 -234 -476 -439 -906 -738 -102 -71 -319 -225 -482 -343
l-298 -215 0 -2911 c0 -2899 1 -2911 20 -2886 47 59 202 294 263 398 176 296
315 626 388 915 13 54 26 86 33 84 6 -3 63 -41 126 -85 211 -146 597 -362 650
-362 19 0 33 7 40 19 15 30 12 424 -5 586 -20 188 -47 337 -97 537 -23 92 -40
170 -37 172 3 3 101 -4 219 -14 118 -11 254 -20 302 -20 82 0 89 2 104 25 28
42 39 21 -279 515 -105 162 -208 317 -229 344 -21 27 -37 51 -35 53 5 4 142
22 222 29 33 3 66 7 74 10 7 2 55 7 107 10 70 5 98 3 109 -6 9 -8 47 -54 85
-104 122 -163 296 -316 495 -436 127 -77 292 -153 682 -314 194 -80 399 -168
455 -195 218 -105 395 -226 570 -390 98 -91 132 -108 156 -78 5 6 22 55 36
108 75 277 195 492 518 925 392 525 546 761 612 937 14 37 51 167 81 289 31
123 64 236 73 252 10 17 33 39 52 50 43 25 393 176 398 171 2 -1 -7 -126 -19
-277 -16 -192 -22 -342 -21 -507 2 -336 2 -336 235 -177 84 57 195 133 247
170 l94 66 24 -87 c73 -275 171 -541 279 -758 66 -132 222 -395 234 -395 10 0
95 116 168 230 60 93 211 382 264 508 14 34 31 62 36 62 5 0 88 -64 183 -141
315 -257 461 -361 665 -472 216 -118 464 -237 494 -237 56 0 68 49 90 355 25
360 -7 732 -97 1104 -18 79 -34 145 -34 147 0 2 198 4 440 4 469 0 490 2 490
47 0 36 -22 73 -143 243 -267 376 -488 660 -560 722 -40 33 -76 64 -81 69 -6
5 28 26 80 50 231 107 420 202 451 225 42 32 43 64 3 97 -34 29 -196 118 -598
327 -162 84 -290 156 -285 160 43 40 379 280 391 280 10 0 58 -18 107 -39 209
-90 363 -121 646 -128 286 -7 394 2 1029 94 155 22 223 26 415 27 242 1 324
-9 536 -65 97 -26 143 -23 147 9 2 13 -8 65 -22 115 -50 179 -60 265 -61 512
0 243 2 267 65 720 54 385 63 512 57 749 -7 273 -39 436 -127 642 -43 101 -44
129 -6 179 12 16 76 101 140 187 65 87 121 158 124 158 4 0 32 -60 61 -133 92
-223 252 -532 361 -695 55 -84 103 -152 105 -152 5 0 97 187 246 498 l59 123
49 -58 c27 -32 61 -70 77 -84 65 -59 767 -580 847 -629 17 -11 47 -20 65 -20
26 0 35 5 42 26 6 15 10 202 10 460 0 239 2 434 6 434 3 0 78 -16 167 -36 309
-68 312 -68 862 -68 559 -1 575 1 575 56 0 37 -57 172 -155 367 -166 331 -348
589 -602 853 -57 59 -103 111 -103 115 0 4 180 107 400 228 l400 220 -6 30
c-4 17 -7 31 -8 32 0 1 -48 31 -106 67 -294 185 -633 323 -1068 436 l-43 11
46 62 c145 200 229 333 256 407 l28 79 -37 11 c-75 22 -170 22 -581 5 -232
-10 -424 -16 -427 -12 -3 3 26 79 64 169 105 245 111 257 135 273 12 7 63 19
112 25 203 25 400 86 595 186 159 80 270 155 550 369 542 413 628 474 795 557
126 64 246 110 355 138 166 42 168 59 28 208 -221 234 -346 449 -551 947 -342
830 -430 968 -816 1277 -30 24 -59 51 -65 60 -7 12 -7 52 2 135 21 217 35 321
42 333 5 7 105 -52 301 -177 162 -104 329 -211 372 -237 84 -52 226 -103 238
-85 3 6 11 48 18 93 11 83 7 167 -20 420 -5 54 -8 100 -6 103 3 2 69 -12 148
-31 394 -96 728 -135 1034 -121 l154 7 -23 62 c-60 159 -194 395 -357 628 -49
70 -89 131 -89 136 0 5 35 16 78 26 125 30 366 113 522 182 244 107 475 241
720 414 114 81 120 87 120 120 0 33 -6 39 -125 123 -383 272 -781 467 -1165
572 -74 21 -136 39 -138 40 -1 1 103 179 233 394 225 376 234 393 220 415 -13
20 -27 24 -98 29 -294 23 -647 -14 -1040 -109 -104 -25 -190 -44 -193 -42 -2
3 3 72 12 154 17 161 22 379 10 432 -4 17 -13 32 -21 32 -7 0 -48 -10 -91 -23
-85 -25 -127 -49 -566 -333 -132 -86 -243 -153 -246 -149 -8 8 -51 358 -51
420 0 28 5 57 12 65 7 9 50 45 97 80 109 81 269 243 343 347 128 180 198 322
397 808 105 256 241 535 317 650 33 50 130 184 216 298 86 114 157 216 157
226 0 29 -21 40 -121 67 -275 73 -465 180 -934 524 -370 271 -612 432 -843
561 -143 79 -181 92 -389 134 -183 37 -246 58 -274 91 -17 21 -194 423 -188
428 2 2 90 -6 194 -17 199 -20 790 -30 848 -14 32 9 36 40 10 90 -20 39 -123
194 -237 356 l-84 119 102 27 c282 75 563 181 792 299 108 56 291 164 321 190
2 2 5 16 8 32 l6 29 -400 220 c-220 121 -401 223 -401 226 0 4 54 63 119 133
189 200 321 372 456 596 118 194 285 548 285 603 0 60 -53 69 -480 86 -355 14
-642 -17 -1012 -110 -64 -16 -121 -29 -125 -29 -5 0 -6 26 -2 58 13 100 10
818 -3 847 -21 47 -61 35 -199 -62 -223 -156 -752 -557 -821 -622 -66 -62 -68
-63 -77 -40 -5 13 -70 149 -145 302 l-135 279 -60 -81 c-136 -184 -271 -438
-417 -783 -27 -65 -52 -116 -56 -115 -16 5 -298 392 -298 410 0 10 15 53 34
95 42 97 93 245 101 297 26 163 35 273 35 425 0 173 -21 477 -40 575 -16 87
-68 465 -81 589 -15 149 -7 421 16 536 9 47 27 129 41 182 47 190 38 203 -114
159 -189 -55 -274 -65 -517 -66 -231 0 -279 5 -675 62 -332 47 -502 62 -718
63 -305 0 -486 -32 -711 -126 -47 -20 -97 -38 -111 -41 -20 -3 -65 26 -218
141 l-194 144 164 85 c90 46 305 157 478 246 173 90 318 166 323 170 12 12
-128 110 -238 167 -55 29 -158 76 -230 104 -71 29 -132 54 -135 57 -3 2 5 12
16 21 12 9 73 72 137 139 197 209 353 408 480 615 63 102 177 309 177 322 0 3
-214 6 -475 6 -261 0 -475 4 -475 8 0 5 16 78 35 163 69 303 70 320 70 881 l0
506 -25 27 c-21 23 -30 25 -65 19 -52 -8 -248 -97 -406 -182 -318 -174 -552
-345 -821 -600 l-76 -73 -25 43 c-14 24 -114 203 -222 398 -109 195 -199 357
-200 358 -2 2 -16 1 -32 -2 -34 -8 -112 -124 -214 -320 -121 -233 -230 -520
-294 -771 -16 -60 -31 -114 -35 -118 -4 -5 -68 34 -142 86 -261 184 -337 230
-381 231 -36 1 -41 -2 -49 -29 -10 -31 -5 -297 13 -748 6 -148 9 -270 7 -273
-4 -4 -83 26 -163 61 -184 81 -263 119 -277 136 -9 11 -19 45 -23 77 -24 215
-83 420 -175 607 -89 180 -130 239 -608 873 -299 396 -393 565 -468 842 -48
177 -62 180 -209 41 -211 -198 -469 -354 -840 -505 -899 -368 -1105 -494
-1362 -832 -36 -48 -74 -86 -91 -93 -28 -12 -111 -10 -192 3 -14 3 -50 7 -80
10 -30 3 -80 9 -110 13 -30 4 -60 6 -67 5 -34 -7 -10 39 133 260 356 549 408
649 355 678 -30 15 -235 11 -436 -9 -99 -10 -182 -17 -184 -15 -2 1 15 79 38
171 72 298 102 502 116 773 5 110 -8 406 -18 417 -2 2 -185 -105 -405 -237
-221 -132 -405 -240 -410 -240 -6 0 -18 33 -27 73 -22 89 -104 332 -150 444
-111 266 -355 686 -503 863 l-21 25 2 -2910z m115 2563 c496 -765 657 -1575
451 -2269 -35 -118 -84 -247 -144 -376 -34 -73 -50 -95 -76 -108 -46 -24 -149
-36 -246 -28 l-83 6 0 1448 c0 851 4 1449 9 1449 5 0 45 -55 89 -122z m1309
-975 c-14 -608 -169 -1137 -467 -1586 -158 -238 -195 -263 -356 -233 -51 10
-94 23 -94 28 0 6 36 117 80 247 123 367 143 496 142 931 -1 307 6 374 43 419
14 15 102 78 197 139 95 61 234 151 308 201 74 49 139 90 144 90 5 1 6 -103 3
-236z m3072 -892 c112 -221 234 -400 545 -796 273 -347 358 -479 445 -689 41
-99 82 -233 101 -336 30 -158 30 -453 -1 -575 -6 -22 -11 -46 -11 -52 -2 -16
-18 -17 -18 -2 0 8 -4 8 -12 1 -9 -7 -17 -5 -28 6 -13 14 -12 15 3 9 12 -4 16
-3 11 4 -3 6 -15 9 -25 6 -11 -3 -19 -1 -19 4 0 4 -7 5 -17 2 -11 -4 -14 -3
-9 6 5 8 3 11 -5 10 -19 -4 -60 11 -77 27 -7 8 -17 12 -21 10 -7 -5 -21 0
-108 33 -18 7 -30 17 -27 22 3 5 -1 7 -8 4 -7 -3 -44 7 -83 21 -38 14 -79 28
-90 31 -11 3 -27 11 -35 18 -26 21 -44 29 -36 17 4 -7 3 -12 -3 -12 -5 0 -13
10 -16 21 -4 12 -25 41 -47 65 -48 52 -123 83 -218 91 l-65 5 0 162 c0 148 -2
165 -24 214 -34 75 -117 149 -225 197 -73 34 -86 43 -82 60 2 11 16 65 31 120
22 82 26 116 23 191 -5 121 -34 179 -145 295 l-84 87 132 491 133 492 31 -78
c18 -43 55 -125 84 -182z m-284 18 c-31 -118 -73 -279 -95 -359 -22 -80 -46
-174 -55 -210 -22 -90 -55 -136 -118 -166 -29 -13 -61 -24 -73 -24 -51 0 -124
-32 -172 -75 -63 -56 -125 -173 -152 -285 -10 -46 -25 -87 -32 -91 -6 -4 -50
-13 -97 -19 -255 -35 -308 -67 -445 -266 l-69 -100 -56 19 c-31 11 -90 22
-131 24 -63 4 -86 1 -141 -20 -60 -23 -67 -23 -78 -8 -11 14 -11 14 -6 -3 4
-15 3 -17 -8 -7 -16 13 -146 36 -222 40 -21 1 -26 4 -17 10 8 5 -8 6 -39 3
-29 -3 -50 -1 -46 4 5 9 -28 14 -93 14 -19 0 -60 5 -90 12 -30 7 -63 12 -72
11 -15 0 -15 5 3 56 35 97 135 292 197 386 177 267 461 483 832 633 562 228
688 287 1100 515 124 69 226 124 228 122 1 -1 -22 -99 -53 -216z m-2360 -216
c-20 -42 -104 -176 -189 -297 -84 -122 -184 -266 -222 -320 -79 -113 -121
-146 -185 -147 -78 -1 -309 13 -309 19 0 9 330 642 357 685 13 21 34 42 46 48
17 7 465 83 524 88 8 1 -1 -29 -22 -76z m6359 -1467 l-719 -1244 -99 51 c-189
99 -217 141 -196 307 87 709 385 1230 975 1705 104 84 407 283 515 340 87 45
230 98 239 90 2 -3 -320 -564 -715 -1249z m-742 864 c122 -251 168 -355 168
-381 0 -30 -14 -56 -76 -140 -267 -365 -422 -783 -469 -1261 -4 -37 -10 -70
-15 -73 -11 -7 -180 61 -223 89 -53 35 -66 76 -77 237 -32 471 19 819 187
1264 45 119 191 431 259 553 58 103 53 109 246 -288z m1592 277 c9 -81 7 -449
-4 -582 -45 -527 -182 -945 -432 -1317 -83 -124 -203 -271 -289 -354 -71 -67
-343 -290 -402 -328 -37 -25 -106 -17 -149 16 -18 14 -72 48 -120 77 l-87 52
28 47 c16 26 338 583 716 1237 378 655 692 1195 697 1202 18 23 35 2 42 -50z
m-4988 -311 c175 -81 233 -298 133 -497 -33 -66 -79 -123 -90 -112 -4 4 -24
69 -44 143 -41 149 -71 237 -85 245 -20 13 -81 -34 -206 -157 l-131 -129 -7
32 c-19 96 2 232 51 322 34 62 120 141 175 160 66 24 144 21 204 -7z m-3141
-207 c99 -6 181 -12 181 -13 1 0 -6 -94 -14 -208 l-16 -208 -31 0 c-16 0 -113
7 -215 15 -102 8 -195 15 -207 15 l-23 0 0 211 0 212 73 -6 c39 -4 153 -12
252 -18z m960 -103 c18 -13 16 -18 -32 -130 l-50 -117 -6 79 c-7 85 2 133 29
163 20 23 34 24 59 5z m4681 -398 c62 -48 115 -95 118 -104 7 -19 8 -834 1
-834 -3 0 -81 36 -173 81 -124 59 -173 88 -184 107 -16 27 -47 170 -68 312 -7
41 -14 214 -17 384 l-5 309 108 -84 c60 -46 159 -123 220 -171z m-3155 227
c24 -8 64 -32 88 -53 l44 -38 -244 -138 c-134 -77 -248 -141 -253 -144 -5 -3
-7 27 -4 69 9 144 100 264 231 305 56 17 85 17 138 -1z m958 -255 c54 -27 116
-102 142 -169 17 -46 20 -70 16 -141 -6 -102 -41 -211 -62 -189 -7 8 -70 111
-140 229 -70 118 -134 225 -142 238 -13 21 -12 23 19 37 48 21 122 19 167 -5z
m-2799 -50 c85 -11 157 -20 159 -20 5 0 -7 -75 -20 -122 l-9 -37 -153 90 c-83
50 -156 95 -161 100 -14 13 8 12 184 -11z m1247 -36 c38 -22 101 -89 92 -98
-2 -2 -113 -58 -246 -125 l-243 -121 0 55 c0 139 101 274 231 309 65 18 110
12 166 -20z m6983 -258 c0 -8 2 -21 5 -28 7 -18 -227 -371 -337 -508 -323
-403 -694 -692 -1110 -864 -132 -55 -148 -52 -298 57 l-81 58 144 110 c374
282 624 598 792 998 55 131 69 139 288 152 89 6 243 16 342 23 251 18 255 18
255 2z m-6057 -45 c26 -10 251 -302 427 -556 480 -691 827 -1396 1011 -2055 9
-35 16 -68 13 -71 -2 -4 0 -10 6 -14 5 -3 10 -11 10 -16 0 -6 -12 -1 -26 10
-15 12 -35 21 -45 21 -22 0 -24 11 -7 28 7 7 9 12 6 12 -4 0 -13 -7 -21 -15
-14 -13 -22 -12 -72 13 -30 15 -52 32 -48 36 4 4 -3 7 -17 5 -24 -3 -69 15
-80 31 -3 4 -38 17 -77 29 -40 12 -73 26 -73 31 0 6 -11 10 -24 10 -14 0 -31
7 -40 15 -8 8 -24 15 -35 15 -12 0 -21 6 -21 16 0 8 -4 13 -10 9 -11 -7 -109
23 -130 40 -8 7 -46 20 -83 30 -37 10 -70 22 -73 27 -3 4 -13 8 -23 8 -10 0
-28 9 -41 20 -14 12 -31 18 -42 14 -11 -3 -26 0 -34 7 -8 7 -32 15 -52 19 -21
3 -36 11 -34 18 1 8 -9 12 -25 11 -26 -1 -43 3 -133 37 -19 7 -48 15 -64 19
-24 5 -27 8 -15 16 11 8 8 9 -11 7 -28 -3 -120 20 -135 33 -5 5 -19 9 -32 9
-13 0 -23 5 -23 10 0 6 -9 10 -21 10 -34 0 -109 22 -104 30 3 4 -4 10 -15 13
-11 3 -17 1 -14 -4 3 -5 -18 -1 -47 10 -29 11 -56 18 -61 15 -4 -3 -8 0 -8 6
0 7 -12 10 -27 8 -19 -2 -27 1 -25 10 1 8 -2 11 -8 7 -5 -3 -30 1 -56 10 -25
8 -50 13 -55 9 -5 -3 -24 2 -42 11 -17 9 -50 19 -71 21 -22 3 -48 10 -58 15
-10 5 -24 7 -30 3 -7 -5 -8 -3 -3 6 6 9 2 10 -15 5 -14 -4 -25 -3 -30 5 -4 6
-23 12 -43 13 -20 1 -37 6 -37 10 0 5 -8 7 -17 6 -10 -2 -34 1 -53 6 -19 5
-38 8 -43 7 -4 -1 -26 7 -48 19 -23 11 -38 16 -34 10 9 -15 -47 6 -58 22 -7 9
-10 9 -14 0 -2 -7 -14 -13 -24 -13 -13 0 -18 4 -13 12 5 7 0 9 -14 6 -11 -3
-51 3 -89 13 -37 11 -82 19 -99 19 -18 0 -40 3 -50 7 -16 6 -16 7 2 15 14 6
13 7 -6 2 -35 -9 -80 -6 -95 6 -6 5 -15 7 -18 3 -4 -3 -7 0 -7 8 0 12 -2 11
-10 -1 -6 -9 -13 -11 -17 -5 -5 6 -17 11 -28 12 -127 15 -251 36 -267 44 -11
6 -32 8 -46 5 -20 -5 -23 -4 -12 3 11 8 -5 10 -55 10 -38 -1 -82 4 -97 10 -15
6 -35 8 -45 4 -12 -5 -15 -2 -11 9 5 11 -1 15 -22 14 -15 -1 -26 -5 -23 -9 2
-4 -6 -6 -19 -3 -12 3 -72 10 -133 16 -60 6 -153 15 -205 21 -52 6 -105 11
-117 12 -17 1 -19 4 -11 14 5 7 15 10 21 6 5 -3 7 -1 4 4 -13 20 310 313 543
494 493 381 1049 696 1835 1038 162 70 194 79 238 62z m-1570 -25 c29 -11 103
-83 95 -91 -13 -12 -461 -266 -464 -262 -10 10 40 167 69 215 70 117 204 179
300 138z m2575 -181 c47 -20 107 -78 135 -130 30 -55 30 -213 0 -294 -11 -30
-24 -56 -29 -58 -5 -2 -74 97 -154 219 -129 196 -159 248 -148 248 2 0 21 7
43 15 53 19 107 19 153 0z m1023 -31 c23 -21 11 -76 -35 -160 -63 -115 -64
-114 -42 61 8 60 12 114 9 119 -9 14 50 -3 68 -20z m360 -136 c126 -56 228
-105 227 -109 -38 -89 -175 -369 -182 -369 -9 0 -427 188 -435 195 -2 2 31 85
73 184 42 99 76 185 76 191 0 5 3 10 6 10 4 0 110 -46 235 -102z m-4573 -27
c20 -11 51 -33 67 -51 25 -26 27 -33 15 -40 -8 -5 -103 -71 -210 -148 l-195
-138 -3 39 c-10 127 71 277 180 331 62 31 96 33 146 7z m4207 -380 c197 -82
195 -91 -24 -91 -94 0 -171 4 -171 8 0 7 24 97 35 130 3 6 8 12 12 12 4 0 71
-26 148 -59z m-4767 -17 c34 -14 102 -70 102 -84 0 -13 -401 -382 -408 -375
-4 4 -7 55 -7 113 1 87 5 118 23 163 37 92 111 165 192 190 39 11 58 10 98 -7z
m6245 -134 c103 -57 187 -107 187 -111 0 -3 -20 -40 -44 -80 -24 -41 -70 -120
-102 -176 l-59 -102 -208 113 c-114 62 -210 116 -213 119 -3 3 38 89 91 192
l97 186 31 -19 c18 -10 116 -65 220 -122z m-2139 120 c44 -16 103 -78 127
-133 31 -71 31 -168 0 -259 -12 -38 -26 -68 -30 -68 -8 0 -254 415 -259 437
-7 28 107 44 162 23z m4231 -348 c271 -109 270 -107 125 -194 -149 -90 -372
-201 -525 -261 -190 -75 -237 -88 -276 -77 -26 8 -239 149 -277 185 -11 10 43
47 280 195 332 208 389 240 427 240 14 -1 125 -40 246 -88z m-8807 -169 c53
-6 53 -6 50 -39 -2 -26 -37 -78 -148 -219 l-145 -185 -23 27 c-50 60 -55 80
-43 157 15 89 42 151 89 200 61 63 100 74 220 59z m7799 -267 l132 -86 -70
-103 c-39 -56 -92 -133 -117 -170 -33 -49 -51 -67 -63 -64 -24 6 -381 249
-386 263 -2 6 44 88 104 181 l108 170 80 -52 c44 -28 139 -91 212 -139z
m-2897 164 c20 -5 52 -27 72 -47 69 -71 99 -177 78 -279 -15 -71 -60 -178 -71
-167 -7 8 -219 470 -219 478 0 6 61 23 85 24 11 1 36 -4 55 -9z m5070 -619
c228 -29 612 -68 910 -92 124 -10 166 -9 289 5 79 9 145 15 147 13 2 -2 -153
-159 -344 -350 -232 -231 -355 -347 -368 -347 -12 0 -47 9 -80 21 -125 44
-269 33 -374 -28 -25 -14 -82 -62 -127 -106 l-82 -80 -127 47 c-228 85 -262
84 -472 -9 l-124 -55 -67 63 c-77 72 -141 107 -209 115 -37 4 -54 12 -79 38
-17 19 -34 34 -37 34 -2 0 -31 25 -63 55 -32 30 -64 55 -70 55 -7 0 -13 5 -13
10 0 6 -7 13 -16 17 -9 3 -26 15 -39 27 -37 35 -97 81 -114 88 -9 4 -12 7 -7
7 11 1 -30 32 -66 50 -57 29 -47 44 105 154 167 120 329 197 523 247 97 25
147 34 314 54 90 11 370 -5 590 -33z m-4735 -29 c121 -83 128 -278 15 -464
-21 -35 -42 -62 -46 -61 -9 2 -162 485 -163 515 -1 12 13 22 47 32 58 18 95
13 147 -22z m6159 -167 c0 -11 -6 -66 -12 -123 -28 -244 -11 -512 63 -1016 56
-381 69 -536 61 -696 -17 -314 -94 -565 -248 -815 -62 -99 -154 -215 -172
-215 -8 0 -21 12 -31 26 -18 28 -38 52 -74 89 -13 14 -20 25 -16 25 4 0 -4 9
-19 21 -14 11 -26 26 -26 34 0 7 -3 15 -7 17 -5 2 -27 28 -49 58 -23 30 -57
71 -75 91 -51 55 -79 92 -79 106 0 7 -6 13 -14 13 -16 0 -26 21 -26 54 0 62
-32 129 -88 185 -31 31 -70 65 -86 77 l-30 20 47 75 c95 153 133 272 116 365
-11 56 -27 87 -90 169 -34 45 -47 70 -41 78 237 304 264 368 228 558 -20 108
-20 148 0 179 34 51 639 650 654 647 8 -1 15 -11 14 -22z m-3340 -165 c120
-89 125 -93 111 -113 -19 -28 -94 -102 -98 -96 -21 28 -167 289 -167 299 0 19
20 7 154 -90z m-2628 -403 c60 -65 68 -160 25 -305 -28 -92 -47 -112 -106
-112 -25 0 -45 4 -45 10 0 5 -16 109 -35 230 -19 121 -35 227 -35 234 0 11 15
11 82 -4 70 -15 87 -23 114 -53z m5045 -68 c128 -44 207 -183 180 -318 -17
-84 -49 -140 -120 -211 -60 -60 -185 -140 -198 -127 -2 3 9 68 26 144 28 125
53 274 48 279 -4 5 -164 -26 -287 -54 -96 -22 -126 -26 -128 -16 -6 23 48 122
95 174 55 61 112 102 173 123 53 19 163 22 211 6z m-2166 -88 c22 -10 55 -34
72 -54 31 -36 57 -102 47 -119 -3 -4 -117 -8 -255 -8 -208 0 -249 2 -249 14 0
28 100 125 162 155 74 37 158 42 223 12z m701 -2 c49 -23 88 -70 109 -130 24
-66 20 -89 -12 -89 -54 -1 -488 22 -501 26 -10 3 -9 10 3 34 73 141 274 221
401 159z m-1376 -33 c63 -41 108 -148 65 -154 -90 -11 -490 -50 -493 -47 -9 9
45 92 85 132 78 75 148 104 241 99 47 -3 73 -10 102 -30z m2078 -1 c51 -22 81
-52 108 -110 43 -91 61 -85 -251 -85 -231 0 -275 2 -275 14 0 20 94 120 137
147 20 12 52 28 72 35 50 18 164 17 209 -1z m-2776 -51 c15 -8 38 -29 52 -46
29 -40 53 -115 40 -127 -9 -9 -491 -121 -519 -121 -12 0 -15 6 -9 23 15 50 55
116 99 165 102 113 239 157 337 106z m-7036 -406 c491 -399 570 -479 665 -682
75 -162 101 -310 97 -559 -2 -91 0 -169 5 -173 10 -10 80 7 187 45 72 26 100
31 181 31 169 0 278 -56 368 -190 76 -112 103 -187 166 -460 45 -193 84 -300
110 -300 21 0 111 87 235 229 224 256 381 349 578 339 148 -7 258 -73 383
-229 95 -119 107 -118 165 15 182 420 527 649 1064 706 148 16 271 34 534 81
125 22 230 38 233 35 3 -3 -204 -366 -459 -808 -420 -724 -510 -879 -695
-1196 -48 -82 -56 -92 -71 -80 -13 11 -15 11 -7 -2 5 -9 1 -8 -11 3 -18 18
-36 28 -174 98 -36 19 -74 42 -85 52 -11 10 -31 21 -44 24 -14 3 -54 23 -90
43 -36 21 -81 41 -99 45 -19 4 -30 11 -26 17 4 6 2 8 -3 5 -6 -4 -49 13 -96
37 -47 24 -96 47 -109 51 -40 12 -153 68 -160 79 -5 7 -8 6 -8 -3 0 -12 -3
-12 -17 1 -10 8 -39 21 -65 28 -27 7 -48 17 -48 21 0 5 -11 9 -24 9 -14 0 -28
5 -31 10 -3 6 -14 10 -23 10 -9 0 -30 7 -46 15 -15 8 -35 15 -43 15 -8 0 -11
5 -7 12 4 6 3 8 -4 4 -12 -7 -123 31 -133 46 -3 5 -10 8 -15 7 -14 -4 -218 63
-225 74 -4 5 -12 6 -18 3 -6 -4 -11 -4 -11 1 0 4 -14 9 -31 9 -17 1 -34 5 -38
10 -3 5 -17 11 -31 12 -14 2 -30 8 -36 13 -6 5 -32 12 -58 15 -25 4 -46 11
-46 16 0 5 -5 6 -11 3 -6 -4 -29 -1 -52 7 -66 23 -109 36 -147 43 -19 4 -48
11 -65 16 -56 17 -241 59 -258 59 -9 0 -17 5 -17 11 0 5 -4 8 -9 4 -5 -3 -29
1 -52 9 -24 8 -46 13 -51 10 -11 -7 -69 6 -64 14 2 4 -15 8 -37 8 -81 3 -218
27 -205 36 8 6 -4 7 -32 3 -31 -4 -41 -3 -31 4 11 7 2 8 -30 5 -35 -5 -41 -3
-29 6 13 10 12 11 -4 6 -10 -4 -25 -1 -32 5 -11 9 -13 9 -9 -2 4 -11 -2 -14
-22 -13 -16 1 -27 6 -26 11 1 6 -8 8 -21 6 -13 -3 -27 0 -30 6 -4 6 -13 11
-19 11 -7 0 -6 -4 3 -10 9 -6 10 -10 3 -10 -6 0 -14 4 -18 10 -3 5 -12 7 -19
4 -8 -3 -34 0 -57 7 -24 7 -48 13 -54 14 -5 2 -73 21 -150 43 -179 51 -381 95
-565 122 -80 12 -155 24 -167 26 l-23 4 0 1136 c0 937 2 1134 13 1127 7 -4
189 -150 403 -325z m6328 198 c18 -8 45 -29 59 -47 26 -34 51 -89 44 -95 -7
-8 -412 -164 -424 -164 -17 0 -26 43 -20 96 9 85 90 167 202 206 61 21 95 22
139 4z m-444 -303 c68 -153 182 -404 253 -558 242 -523 324 -725 407 -1001 99
-326 143 -605 143 -909 1 -343 -55 -629 -181 -923 -35 -82 -39 -87 -92 -115
l-55 -28 -195 3 c-177 3 -199 5 -235 25 -49 26 -116 96 -144 151 -31 60 -104
119 -251 202 -73 41 -134 80 -137 87 -2 6 16 47 41 90 90 157 137 300 157 478
24 230 -31 472 -189 827 -157 352 -208 576 -182 803 8 76 8 102 -2 123 -22 46
-50 40 -159 -33 -211 -143 -402 -199 -819 -245 -228 -25 -327 -43 -450 -82
-304 -97 -542 -290 -675 -551 -22 -42 -44 -77 -48 -77 -4 0 -99 50 -210 110
l-202 110 -92 -6 c-89 -6 -94 -6 -133 20 -48 32 -89 93 -182 273 -112 218
-102 248 182 533 393 395 878 634 1516 749 154 28 475 67 749 91 426 38 665
65 845 96 43 8 191 31 205 33 6 0 66 -124 135 -276z m3065 -93 c179 -13 710
-67 794 -81 71 -11 103 -30 125 -74 20 -41 68 -450 98 -845 19 -250 16 -911
-6 -1140 -27 -299 -71 -576 -132 -845 -40 -177 -55 -221 -66 -201 -5 9 -14 13
-20 10 -7 -5 -8 -2 -4 5 5 7 1 20 -8 29 -38 40 -66 81 -66 97 0 9 -4 14 -10
10 -11 -7 -42 50 -32 60 4 3 1 5 -6 3 -8 -2 -19 6 -25 16 -7 11 -25 35 -41 53
-33 38 -62 77 -58 81 1 1 2 8 2 15 0 9 -3 8 -9 -2 -7 -11 -10 -9 -16 8 -3 11
-10 21 -14 21 -4 0 -15 18 -25 40 -10 22 -21 38 -26 35 -12 -7 -42 44 -34 57
4 6 3 9 -2 5 -15 -9 -47 21 -40 38 3 10 2 14 -5 10 -6 -4 -13 2 -16 14 -3 12
-11 21 -17 21 -18 0 -47 39 -40 53 4 7 4 9 -1 5 -7 -7 -35 14 -35 26 0 3 -8
15 -17 25 -33 37 -43 50 -43 61 0 5 -4 10 -9 10 -5 0 -22 18 -38 40 -15 22
-34 40 -40 40 -7 0 -13 4 -13 9 0 9 -47 65 -107 129 -18 19 -30 38 -27 43 3 5
-2 9 -11 9 -11 0 -15 5 -11 16 3 9 2 12 -5 9 -13 -9 -63 41 -54 55 3 5 1 10
-5 10 -18 0 -130 123 -130 142 0 9 -4 20 -10 23 -5 3 -10 1 -10 -6 0 -7 -6 -4
-14 6 -8 11 -11 26 -8 34 4 10 1 13 -11 8 -18 -7 -78 46 -74 66 1 6 -2 11 -8
12 -13 1 -53 24 -42 25 5 0 -13 19 -40 42 -26 23 -54 54 -62 70 -7 15 -19 28
-26 28 -7 0 -15 9 -18 20 -3 11 -10 19 -15 18 -15 -4 -112 90 -109 105 1 6 -3
11 -10 10 -16 -3 -75 56 -67 68 3 5 -2 9 -11 9 -8 0 -41 24 -73 54 -31 30 -69
64 -84 76 -15 11 -26 26 -24 33 1 7 1 9 -1 5 -8 -13 -18 -9 -31 13 -8 12 -9
18 -3 14 6 -3 11 -1 11 4 0 6 -8 11 -17 11 -27 0 -126 87 -117 101 3 5 -2 6
-10 3 -12 -5 -16 1 -16 22 0 22 -3 25 -10 14 -7 -12 -13 -11 -36 10 -51 47
-61 55 -103 89 -26 21 -40 39 -37 48 4 10 1 13 -13 8 -13 -4 -20 0 -24 17 -4
12 -9 19 -13 15 -4 -3 -19 4 -34 16 -15 12 -45 36 -66 52 -35 28 -92 76 -138
118 -11 9 -24 17 -28 17 -5 0 -7 4 -4 8 2 4 -10 14 -27 22 -36 15 -58 40 -49
54 3 5 -2 7 -11 3 -9 -3 -18 0 -21 9 -3 8 -15 14 -26 14 -13 0 -20 7 -20 20 0
12 -6 20 -12 19 -21 -3 -48 12 -41 24 3 6 1 7 -6 3 -7 -5 -22 3 -36 18 -13 14
-28 26 -33 26 -4 0 -27 16 -50 36 -23 19 -42 32 -42 28 0 -4 -6 1 -14 11 -8
11 -12 24 -9 28 3 5 -1 7 -8 6 -17 -3 -85 27 -93 40 -4 5 0 12 6 14 7 3 1 6
-14 6 -60 2 -22 21 100 50 380 92 765 148 1172 171 184 10 687 4 885 -10z
m1610 -82 c54 -47 78 -101 79 -178 1 -84 -39 -172 -116 -255 l-55 -59 -16 30
c-25 48 -37 139 -37 274 0 110 13 230 27 252 6 11 76 -27 118 -64z m3118 -518
c7 -7 -36 -655 -49 -745 -10 -62 -29 -80 -122 -120 -302 -128 -570 -312 -797
-546 -92 -95 -260 -303 -304 -375 -10 -17 -16 -14 -66 41 -76 83 -110 152
-101 211 8 64 56 180 132 319 245 450 600 814 1111 1140 144 92 168 101 196
75z m-3128 -149 c115 -52 159 -213 95 -346 -25 -53 -140 -175 -165 -175 -9 0
-15 9 -15 23 0 12 -7 121 -15 242 -20 303 -22 275 23 275 20 0 55 -9 77 -19z
m1903 -278 c107 -280 109 -286 90 -326 -20 -41 -386 -627 -403 -646 -21 -21
-117 80 -157 166 -27 56 -32 79 -32 142 0 113 14 149 236 604 171 349 155 345
266 60z m-7283 -202 c53 -145 126 -334 162 -420 138 -332 168 -463 161 -686
-9 -242 -74 -424 -227 -635 -60 -81 -64 -94 -43 -121 15 -17 34 -23 107 -30
163 -16 246 -50 335 -135 105 -100 146 -220 137 -404 -6 -126 -22 -189 -108
-438 -30 -88 -49 -161 -49 -188 l0 -44 53 0 c35 0 128 21 268 60 254 72 375
94 479 87 219 -15 370 -166 410 -414 14 -83 39 -163 50 -163 18 0 86 36 149
78 295 199 627 252 956 153 69 -21 986 -371 998 -381 4 -3 -21 -22 -55 -41
-35 -20 -405 -233 -823 -475 -418 -242 -833 -482 -923 -533 l-163 -94 -17 24
c-39 56 -194 245 -287 349 -105 118 -352 359 -360 351 -3 -2 -5 1 -5 7 0 6
-11 23 -25 38 -14 15 -23 29 -21 32 7 7 -66 82 -75 77 -4 -3 -11 0 -15 6 -4 8
-3 9 4 5 19 -12 14 4 -12 35 -13 15 -26 25 -29 22 -3 -3 -3 5 0 18 4 15 3 20
-5 15 -7 -4 -12 -3 -12 1 0 5 -14 24 -32 43 -18 19 -31 38 -30 42 1 4 -7 12
-18 18 -11 6 -25 21 -32 34 -13 24 -88 112 -165 194 -24 24 -43 47 -43 50 0 3
-22 27 -50 54 -27 26 -47 48 -44 48 11 0 -431 428 -549 531 -22 19 -46 42 -55
52 -10 11 -35 31 -57 47 -22 16 -60 47 -85 70 -74 67 -90 80 -100 80 -5 0 -15
8 -22 19 -7 10 -34 33 -60 50 -27 18 -48 37 -48 42 0 5 -7 9 -15 9 -9 0 -18 7
-21 15 -4 8 -11 15 -17 15 -11 0 -100 69 -105 82 -2 5 -9 8 -16 8 -6 0 -19 8
-28 18 -25 26 -46 42 -56 42 -5 0 -22 12 -37 26 -15 14 -46 37 -69 52 -22 15
-43 29 -46 32 -3 3 -17 11 -32 19 -15 8 -25 19 -21 24 3 6 1 7 -4 4 -6 -4 -24
3 -39 15 -16 13 -33 26 -39 30 -34 27 -164 106 -183 113 -13 4 -32 14 -41 23
-54 51 -134 94 -149 81 -7 -5 -10 -6 -7 -3 3 4 0 13 -6 20 -8 9 19 63 104 211
222 385 1061 1838 1080 1871 11 18 21 32 22 30 2 -2 46 -122 100 -267z m-2985
8 c69 -116 126 -215 128 -219 5 -12 -479 -433 -487 -424 -4 5 -43 113 -86 239
-43 127 -89 259 -102 294 -13 35 -21 67 -17 70 7 8 427 250 434 250 3 0 61
-94 130 -210z m12930 -119 c6 -8 8 -19 7 -25 -4 -11 -2476 -1444 -2493 -1445
-13 0 -125 176 -149 235 -23 53 -9 96 67 207 314 459 791 783 1373 932 214 54
323 70 775 110 25 2 127 3 228 2 148 -2 185 -5 192 -16z m-4525 -131 c56 -39
78 -81 83 -162 6 -107 -20 -169 -114 -266 l-73 -76 -1 269 0 269 36 -6 c20 -4
51 -16 69 -28z m1149 -175 c81 -113 146 -207 145 -208 -32 -24 -334 -228 -340
-229 -4 -1 -71 86 -148 193 -96 133 -137 198 -130 205 14 15 313 243 319 244
3 0 72 -92 154 -205z m3399 53 c-319 -637 -757 -1104 -1288 -1373 -255 -128
-551 -209 -882 -239 -85 -7 -135 9 -159 52 -8 15 -42 77 -75 138 -34 60 -57
111 -52 113 4 1 566 326 1248 721 856 496 1244 715 1252 709 9 -7 -2 -38 -44
-121z m-3923 -217 c93 -124 110 -150 92 -150 -9 0 -289 155 -302 167 -6 6 100
103 112 103 4 0 48 -54 98 -120z m-640 -373 c48 -32 72 -78 77 -150 7 -89 -22
-161 -96 -236 -54 -56 -117 -98 -128 -87 -6 5 32 425 43 474 6 30 59 30 104
-1z m1835 -474 c72 -119 125 -218 120 -220 -6 -2 -88 -48 -183 -103 l-172 -99
-23 37 c-172 275 -228 375 -219 384 18 18 326 216 337 217 6 0 69 -97 140
-216z m2393 -282 l354 -177 -39 -26 c-80 -53 -302 -169 -417 -218 -260 -111
-569 -200 -841 -240 -176 -27 -538 -38 -640 -21 -158 27 -242 101 -288 257
l-15 50 172 22 c94 13 223 34 286 48 309 69 612 208 856 391 43 32 92 66 109
75 64 37 86 29 463 -161z m-4304 75 c61 -33 80 -66 84 -147 4 -63 1 -77 -27
-134 -20 -41 -52 -82 -89 -117 -70 -64 -186 -135 -190 -116 -1 7 25 132 58
277 33 145 60 265 60 268 0 10 67 -10 104 -31z m-2484 -455 c434 -70 796 -196
1475 -511 212 -99 566 -257 748 -335 73 -32 87 -41 87 -60 0 -54 -122 -1343
-140 -1483 -80 -605 -230 -1051 -478 -1422 -109 -163 -196 -260 -449 -504
-190 -183 -194 -186 -236 -186 -35 0 -54 8 -95 39 -29 21 -98 62 -153 91 -173
92 -213 149 -235 337 -14 122 -31 163 -146 358 l-54 90 88 50 c294 169 477
414 565 755 13 52 40 221 59 375 19 154 42 310 50 348 33 157 103 321 199 466
60 91 69 133 35 151 -14 7 -61 9 -143 4 -216 -12 -413 29 -690 142 -229 93
-413 157 -563 196 -120 30 -140 33 -294 33 -142 0 -176 -3 -244 -23 -110 -32
-204 -73 -324 -143 -57 -34 -105 -59 -106 -57 -2 1 -17 48 -34 103 -17 55 -48
129 -69 164 -49 82 -144 171 -228 212 -37 18 -73 42 -81 54 -17 27 -30 313
-19 428 6 73 10 82 44 116 84 84 455 194 791 235 19 2 143 3 275 1 180 -3 271
-8 365 -24z m4978 -396 l112 -226 -42 -18 c-24 -10 -109 -50 -191 -89 l-147
-71 -110 218 -109 218 177 95 c97 53 182 96 187 97 6 1 61 -100 123 -224z
m-6599 166 c45 -25 51 -56 51 -285 0 -196 -2 -215 -17 -220 -18 -5 -261 -52
-496 -97 -65 -12 -119 -20 -121 -18 -4 4 2 41 65 374 23 121 46 231 51 244 l9
24 218 -6 c132 -3 227 -10 240 -16z m3897 -13 c61 -41 86 -87 81 -148 -8 -94
-82 -212 -158 -251 -40 -20 -143 -27 -154 -10 -3 5 23 83 58 173 35 90 72 187
82 216 11 28 24 52 31 52 6 0 34 -15 60 -32z m3634 -148 c20 -5 46 -24 61 -42
173 -219 279 -361 279 -375 -1 -43 17 -43 -460 -13 -214 14 -389 35 -455 55
-55 16 -110 65 -140 124 -20 39 -95 239 -95 252 0 12 767 11 810 -1z m-3163
-694 c28 -14 59 -36 68 -49 15 -23 67 -178 62 -184 -4 -3 -519 76 -525 81 -5
5 30 59 62 94 65 74 235 103 333 58z m2085 -225 c32 -74 58 -138 58 -142 0 -7
-124 -49 -144 -49 -3 0 -6 75 -6 166 0 213 9 215 92 25z m-1410 84 c56 -20
125 -86 140 -136 12 -41 -3 -119 -26 -138 -10 -8 -96 15 -454 125 -95 29 -95
31 -9 86 111 71 250 96 349 63z m1957 -91 c12 -15 21 -30 21 -34 0 -7 -93 -23
-215 -36 l-60 -7 27 22 c47 38 139 81 173 81 24 0 39 -7 54 -26z m225 -154
c211 -20 382 -69 581 -165 140 -68 276 -159 550 -371 416 -321 567 -425 869
-594 141 -79 183 -106 169 -112 -10 -4 -222 -62 -471 -128 l-453 -121 -84 80
c-55 52 -109 91 -152 113 -64 31 -73 33 -178 33 -90 -1 -127 -5 -204 -28 -51
-16 -94 -27 -95 -25 -1 2 -21 41 -44 88 -55 111 -116 181 -190 217 -55 27 -62
28 -213 28 l-156 0 -12 70 c-19 116 -65 195 -154 262 -18 14 -28 32 -30 51 -1
17 -5 28 -9 26 -4 -3 -11 13 -14 36 -4 22 -10 40 -14 40 -10 0 -25 58 -21 79
1 7 -2 10 -8 6 -10 -6 -15 10 -14 43 1 6 -4 12 -9 12 -6 0 -7 8 -4 17 4 10 4
14 0 10 -11 -11 -45 80 -37 99 4 11 2 15 -4 11 -6 -4 -19 19 -32 56 -25 70
-26 72 -46 107 -14 25 -14 25 39 37 122 28 291 37 440 23z m-1569 -36 c66 -23
141 -96 151 -148 8 -44 -6 -132 -21 -129 -12 2 -477 212 -483 218 -6 5 76 46
123 61 58 18 173 17 230 -2z m-2981 -191 c-2 -10 -31 -189 -65 -398 -106 -662
-129 -768 -193 -902 -106 -221 -261 -365 -542 -506 -60 -30 -116 -63 -124 -72
-15 -19 -11 -23 137 -152 117 -101 173 -218 173 -359 0 -104 -26 -192 -83
-276 -56 -84 -78 -108 -241 -267 -136 -133 -236 -244 -236 -261 0 -12 127 -52
346 -109 105 -28 214 -59 242 -70 205 -81 309 -185 347 -346 24 -103 16 -185
-35 -336 -22 -65 -40 -122 -40 -128 0 -16 53 -21 275 -25 189 -3 219 -6 300
-29 228 -65 386 -171 559 -377 40 -47 189 -229 331 -405 142 -176 265 -328
273 -337 14 -17 -44 -18 -1201 -18 l-1216 0 -1 118 c-1 171 -9 342 -21 467 -6
61 -8 130 -6 154 3 27 2 38 -4 30 -6 -10 -8 -5 -8 16 1 45 -9 153 -15 163 -5
9 -8 53 -8 125 0 28 -3 45 -9 41 -6 -3 -9 8 -8 28 1 18 -1 43 -5 54 -13 40
-35 196 -29 210 3 8 0 14 -7 14 -8 0 -11 12 -8 34 2 19 0 32 -4 30 -4 -3 -8 6
-8 19 0 22 -41 228 -56 282 -4 16 -3 17 5 5 16 -22 13 2 -2 25 -18 27 -40 132
-31 146 5 8 3 9 -6 4 -9 -6 -10 -2 -5 15 4 14 3 20 -3 16 -5 -3 -12 19 -16 54
-4 33 -11 60 -15 60 -4 0 -8 6 -9 13 0 6 -5 30 -11 51 -5 22 -7 44 -4 49 3 6
1 7 -5 3 -8 -5 -12 1 -12 16 0 13 -9 48 -20 78 -11 30 -18 61 -15 68 2 6 1 12
-4 12 -7 0 -20 41 -53 165 -6 22 -19 58 -29 80 -10 22 -25 66 -33 97 -8 31
-19 65 -24 75 -5 10 -7 24 -5 31 3 6 0 12 -5 12 -12 0 -34 59 -26 71 3 5 0 9
-6 9 -6 0 -8 5 -5 10 3 6 -3 23 -14 39 -12 16 -23 44 -25 62 -2 18 -8 35 -15
37 -6 2 -9 8 -5 13 3 5 -2 16 -10 25 -9 9 -14 20 -11 25 4 5 1 9 -4 9 -6 0
-11 5 -11 11 0 5 6 7 13 3 6 -3 -4 8 -23 26 -19 18 -29 29 -22 26 17 -10 15 9
-5 47 -10 18 -18 41 -19 52 0 11 -3 27 -7 35 -3 8 -13 49 -22 90 -48 211 -193
660 -251 771 l-13 27 202 118 c409 240 1762 1023 1769 1024 3 0 4 -8 2 -17z
m3619 -147 c54 -22 122 -96 136 -149 12 -43 5 -100 -17 -134 -6 -9 -68 22
-225 113 -119 69 -217 130 -217 134 0 5 20 18 46 30 81 40 192 42 277 6z
m-1545 -87 c679 -203 1356 -555 2092 -1088 80 -58 172 -123 205 -144 227 -150
239 -185 130 -404 -36 -73 -80 -167 -99 -210 -60 -140 -198 -425 -287 -594
-306 -580 -655 -1075 -1037 -1470 -71 -73 -129 -127 -130 -119 0 8 -3 26 -6
40 -4 14 -9 74 -12 134 -2 60 -9 117 -14 127 -6 10 -12 53 -13 96 -2 43 -7 84
-11 91 -4 7 -4 26 -1 43 4 19 3 34 -4 38 -10 7 -25 90 -37 211 -8 74 -8 72 0
97 6 19 4 22 -10 16 -14 -5 -16 -2 -10 20 4 16 0 42 -10 64 -8 21 -16 64 -16
95 -1 31 -4 55 -8 53 -4 -3 -13 23 -20 57 -8 45 -9 63 -1 66 6 2 11 10 11 18
0 9 -4 13 -9 9 -15 -8 -23 13 -23 56 1 22 -3 37 -9 34 -5 -4 -9 3 -9 14 0 10
-3 28 -6 38 -5 15 -4 16 6 3 14 -17 12 -11 -15 80 -10 30 -17 65 -17 77 0 13
-4 21 -8 18 -4 -3 -8 10 -8 28 -1 17 -6 56 -11 86 -6 29 -8 57 -5 62 3 5 0 8
-8 7 -9 -2 -13 8 -12 36 1 22 -2 33 -6 25 -10 -15 -22 27 -45 158 -11 59 -21
91 -28 86 -6 -4 -8 2 -4 17 3 13 -1 36 -10 54 -9 17 -18 44 -20 61 -2 16 -14
61 -28 99 -18 49 -22 72 -14 77 8 5 8 8 0 14 -7 3 -9 16 -6 28 2 12 2 16 -1
10 -8 -19 -24 -16 -24 5 -1 9 -9 40 -19 69 -12 36 -14 54 -7 57 7 3 4 9 -7 16
-9 6 -15 16 -11 21 3 5 1 15 -4 22 -5 7 -20 48 -32 92 -12 43 -30 90 -39 104
-13 21 -13 24 -1 16 12 -7 12 -4 -2 17 -10 14 -15 36 -12 49 4 17 3 20 -4 11
-12 -18 -22 6 -22 54 0 19 -4 34 -8 34 -4 0 -14 15 -22 33 -7 17 -16 36 -18
41 -3 5 0 6 6 2 6 -4 8 2 5 14 -3 12 -8 18 -11 16 -8 -8 -32 43 -32 68 0 11
-7 30 -15 40 -8 10 -12 22 -10 27 3 4 -10 39 -30 77 -19 38 -37 89 -41 113 -4
24 -12 49 -19 54 -6 6 -19 30 -29 55 -10 25 -24 60 -32 78 -8 18 -14 42 -14
53 0 11 -7 22 -15 25 -8 4 -15 11 -15 18 0 16 -53 140 -62 144 -5 2 -5 15 -2
28 4 16 2 24 -7 24 -7 0 -10 3 -6 6 3 3 -3 16 -14 27 -11 12 -22 38 -25 59 -4
22 -12 38 -20 38 -7 0 -16 5 -20 12 -4 7 -3 8 4 4 7 -4 12 -3 12 3 0 5 -6 12
-12 14 -43 18 82 -13 220 -54z m2115 -245 c58 -20 134 -86 158 -139 10 -22 19
-58 19 -81 0 -40 -26 -134 -38 -134 -3 0 -108 68 -234 152 l-230 152 39 20
c92 47 201 59 286 30z m611 -393 c56 -24 125 -87 143 -128 20 -49 15 -203 -7
-203 -15 0 -480 283 -480 292 0 11 83 47 135 58 58 13 159 4 209 -19z m723
-286 c204 -93 245 -318 86 -467 -99 -92 -207 -125 -386 -119 l-39 1 53 63 c29
34 100 110 158 169 58 59 103 109 100 111 -2 2 -92 30 -201 62 -108 32 -202
61 -209 66 -31 19 91 108 181 134 79 22 184 14 257 -20z m1206 -22 c-154 -189
-292 -458 -488 -953 -154 -387 -230 -550 -327 -695 -160 -240 -339 -402 -598
-543 -70 -38 -242 -112 -261 -112 -5 0 -13 10 -20 21 -9 17 -8 20 3 13 11 -6
11 -5 0 8 -11 14 -11 17 2 20 13 3 13 8 0 43 -23 63 -46 206 -40 249 3 27 2
35 -5 25 -7 -11 -9 -10 -9 7 0 12 -3 36 -7 54 -5 27 -3 31 8 24 10 -6 9 0 -3
19 -10 14 -18 35 -18 47 0 11 -4 20 -10 20 -6 0 -6 9 0 25 6 15 6 26 0 30 -6
4 -10 13 -10 21 0 8 4 12 10 9 5 -3 7 0 5 8 -3 7 1 30 10 50 28 67 15 192 -29
298 -5 12 15 31 86 80 127 86 196 153 224 216 22 50 30 85 57 257 l12 79 113
37 c132 44 209 88 264 150 52 58 75 104 98 196 29 117 27 115 202 164 211 59
728 188 756 189 20 1 18 -4 -25 -56z m-1523 -794 c32 -117 -45 -256 -180 -324
-52 -26 -187 -62 -197 -52 -3 3 4 21 15 39 11 18 34 60 52 93 55 101 182 329
198 354 l15 25 43 -46 c26 -28 47 -62 54 -89z m-399 -521 c38 -28 75 -90 84
-140 4 -23 1 -58 -10 -95 -22 -78 -113 -169 -200 -202 -60 -23 -155 -44 -162
-37 -6 6 241 496 250 496 4 0 22 -10 38 -22z m-5133 -274 c108 -64 203 -122
210 -129 10 -9 -3 -40 -69 -156 -45 -79 -100 -177 -122 -217 -49 -86 -26 -86
-255 -5 -86 30 -212 73 -280 96 -67 23 -121 45 -120 49 6 16 420 478 429 478
6 0 99 -52 207 -116z m605 -214 c396 -80 770 -257 1097 -518 121 -96 338 -314
461 -462 97 -117 315 -396 359 -460 13 -19 27 -37 31 -40 3 -3 17 -21 30 -40
13 -19 78 -107 145 -195 145 -193 524 -720 524 -730 0 -10 -739 -1051 -841
-1185 -154 -203 -249 -311 -428 -491 -190 -189 -282 -267 -461 -388 -277 -188
-587 -324 -870 -381 -127 -26 -284 -36 -322 -21 -33 12 -63 58 -193 290 l-96
170 39 50 c87 110 117 216 108 376 -3 61 -12 138 -19 172 l-14 61 111 7 c267
16 409 46 549 116 210 104 348 240 626 612 199 267 339 398 528 494 51 26 107
62 125 80 l32 33 -34 35 c-18 19 -67 50 -107 69 -188 89 -342 232 -539 497
-277 371 -410 503 -610 606 -160 82 -337 123 -533 123 -64 0 -121 4 -127 8 -7
5 -7 42 3 127 21 196 0 321 -74 440 -50 82 -51 130 -3 205 19 29 69 115 111
189 87 157 113 181 193 181 28 0 117 -14 199 -30z m4248 -212 c10 -21 19 -55
19 -76 0 -51 -51 -152 -97 -193 -50 -43 -146 -87 -212 -95 l-53 -7 12 24 c24
44 222 394 237 418 l15 23 30 -28 c16 -16 38 -46 49 -66z m849 -288 c0 -31
-21 -67 -46 -79 -23 -10 -233 -35 -240 -28 -4 3 262 123 279 126 4 0 7 -8 7
-19z m1010 -17 c0 -5 -14 -116 -31 -248 -20 -158 -36 -252 -48 -275 -13 -25
-37 -46 -87 -73 -118 -66 -622 -327 -636 -329 -9 -2 -16 39 -25 162 -7 91 -11
174 -8 186 10 43 304 276 509 403 108 68 303 178 319 180 4 1 7 -2 7 -6z
m-1493 -305 c11 -90 18 -165 16 -168 -6 -7 -44 41 -68 87 -11 21 -43 76 -72
123 -28 46 -50 86 -48 88 5 6 107 30 131 31 19 1 22 -9 41 -161z m513 130 c0
-7 11 -119 25 -248 13 -129 22 -237 19 -239 -2 -3 -23 -6 -47 -7 -23 -1 -113
-7 -200 -14 -86 -7 -160 -11 -162 -8 -6 6 -54 471 -50 476 3 3 353 48 398 51
9 0 17 -5 17 -11z m-1284 -80 c33 -40 54 -88 54 -126 0 -80 -105 -204 -205
-241 -48 -18 -195 -43 -195 -34 0 9 304 433 311 433 4 0 20 -15 35 -32z m3506
-208 c9 -14 -98 -182 -368 -572 -87 -125 -90 -126 -227 -107 -119 17 -455 17
-577 0 -240 -33 -503 -106 -734 -205 -60 -25 -110 -45 -112 -43 -2 2 -11 32
-20 66 -27 107 -2 201 78 286 127 139 560 358 895 455 307 88 663 139 947 136
85 -1 111 -4 118 -16z m-3917 -342 c29 -23 64 -90 65 -123 0 -82 -79 -184
-179 -229 -31 -14 -89 -30 -127 -35 -71 -9 -164 -2 -165 12 -1 11 360 397 370
397 5 0 21 -10 36 -22z m3315 -438 c290 -37 611 -134 910 -277 202 -96 561
-304 558 -323 -3 -13 -159 -15 -1440 -18 l-1436 -2 -6 32 c-3 18 -8 85 -11
148 -8 151 -2 162 130 225 252 121 527 197 808 225 108 10 366 5 487 -10z
m-3789 -155 c15 -55 -2 -107 -54 -156 -77 -76 -187 -112 -281 -95 -36 7 -99
52 -94 67 2 4 84 71 183 148 l180 141 28 -32 c15 -18 32 -51 38 -73z m2264
-207 l8 -207 -31 -30 -30 -31 -186 0 -186 0 0 214 c0 213 0 215 24 243 l24 28
179 5 c113 3 180 1 185 -5 3 -5 9 -103 13 -217z m2994 -397 c-13 -10 -85 -59
-160 -108 -380 -249 -844 -426 -1284 -489 -163 -24 -468 -24 -630 0 -231 34
-476 109 -700 216 -122 58 -128 70 -121 230 3 69 8 135 12 148 l6 22 1451 0
c1419 0 1449 0 1426 -19z m-7065 -3 c-8 -13 -233 -292 -458 -568 -291 -356
-429 -470 -661 -543 -124 -39 -209 -49 -423 -50 l-197 -2 3 -38 c2 -21 16 -71
32 -112 84 -209 55 -402 -80 -535 -99 -98 -204 -141 -544 -226 -100 -24 -204
-56 -233 -71 l-52 -26 17 -30 c9 -16 78 -86 152 -156 273 -255 335 -331 380
-470 33 -103 27 -230 -16 -321 -43 -90 -100 -158 -193 -231 -85 -65 -98 -83
-80 -106 7 -8 70 -43 141 -79 306 -156 486 -357 581 -649 35 -105 43 -146 72
-344 13 -91 47 -310 75 -485 28 -176 49 -323 48 -327 -2 -5 -77 35 -168 88
-91 52 -253 146 -360 208 -107 62 -305 177 -440 255 -135 78 -265 154 -290
167 -55 31 -178 103 -370 215 -80 47 -193 113 -252 148 l-107 62 44 87 c131
263 254 632 291 881 4 25 10 50 14 55 4 6 10 23 14 38 4 15 10 26 14 23 4 -2
9 5 9 17 1 12 11 39 22 62 25 49 51 121 58 158 3 15 9 27 12 27 4 0 8 6 8 13
2 21 66 201 77 216 6 7 11 19 11 25 2 32 18 85 25 81 4 -2 5 7 2 20 -3 16 0
25 8 25 7 0 10 7 6 15 -3 8 -1 15 5 15 6 0 8 4 4 10 -3 5 10 56 30 113 19 58
35 112 35 121 0 9 5 16 11 16 6 0 8 7 5 17 -4 9 2 44 13 77 22 72 51 194 51
219 0 9 5 17 11 17 6 0 8 9 4 20 -3 11 -2 20 3 20 5 0 9 8 9 18 -1 45 4 73 11
69 4 -3 8 14 9 37 1 22 9 68 18 101 9 33 18 71 20 85 8 80 30 178 38 173 6 -3
7 -1 3 5 -7 12 19 233 31 262 3 8 8 51 10 95 2 44 8 82 13 83 6 2 7 8 4 13 -3
6 0 17 8 26 10 13 10 15 0 9 -10 -6 -11 -1 -6 21 4 15 11 36 15 45 5 9 9 25 8
35 -1 13 -3 11 -10 -7 -6 -18 -7 -12 -4 24 3 27 5 70 5 95 0 28 4 41 9 33 4
-7 6 24 4 70 -3 46 -1 78 4 71 4 -6 8 37 9 95 0 59 1 171 2 250 l1 142 1216 0
c933 0 1214 -3 1209 -12z m1614 -204 c60 -19 138 -76 170 -124 33 -48 28 -130
-11 -189 l-27 -41 -180 141 c-99 77 -183 145 -186 150 -17 27 76 78 142 79 23
0 64 -7 92 -16z m2775 -329 c411 -141 511 -157 987 -159 l335 -2 45 -24 c32
-18 57 -45 93 -100 27 -41 120 -185 207 -320 l158 -245 -161 -3 c-547 -11
-1143 146 -1592 420 -248 151 -290 196 -296 313 -3 64 -1 195 4 195 1 0 100
-34 220 -75z m-326 -87 c-3 -29 -11 -140 -18 -245 -7 -106 -15 -197 -18 -201
-3 -5 -97 -2 -208 6 l-203 15 0 36 c0 40 16 281 26 379 l6 62 210 0 211 0 -6
-52z m-1943 -48 c153 -48 258 -190 215 -293 -14 -32 -75 -107 -89 -107 -9 0
-367 382 -369 395 -6 30 152 33 243 5z m2566 -521 c91 -48 171 -97 178 -108
19 -28 27 -68 62 -307 38 -264 40 -259 -92 -184 -362 208 -645 419 -701 525
-27 51 -28 156 -2 272 l18 82 186 -97 c102 -53 260 -135 351 -183z m-2941
-114 c436 -486 807 -1063 1136 -1765 88 -186 275 -616 275 -630 0 -11 -253
-205 -451 -346 -784 -562 -1517 -924 -2284 -1130 -12 -3 -15 -2 -9 3 7 4 14
17 16 28 2 11 11 19 20 19 10 -1 14 4 11 13 -3 8 1 28 10 46 8 18 21 46 28 62
8 17 16 32 19 35 3 3 11 20 18 38 6 17 18 47 25 65 6 17 18 36 25 40 6 4 12
15 12 23 0 9 -5 13 -12 9 -7 -4 -6 -1 2 7 9 7 26 45 39 83 13 39 32 84 42 101
11 17 19 38 19 45 0 8 9 31 20 52 11 20 17 37 13 37 -4 0 -2 5 5 12 7 7 12 20
12 29 0 10 4 19 8 21 4 2 23 50 41 108 19 58 39 113 47 124 7 10 10 24 8 31
-3 7 -1 16 5 20 6 3 11 17 11 31 0 13 4 24 9 24 5 0 12 7 15 16 3 8 2 12 -4 9
-6 -4 -5 5 2 20 8 19 14 22 20 13 6 -9 7 -5 3 9 -3 12 1 36 10 53 9 18 14 34
11 37 -6 6 24 64 38 74 5 4 6 15 2 25 -7 18 47 197 68 223 9 12 8 13 -2 7 -11
-6 -11 -2 1 20 8 16 17 46 21 67 4 21 11 35 15 32 5 -2 12 12 16 33 15 87 48
211 54 208 3 -3 7 13 7 35 1 21 6 45 11 51 9 13 36 117 38 148 1 8 5 32 9 53
6 28 11 35 17 25 6 -8 9 -1 7 22 -1 20 1 41 6 48 4 6 9 28 12 49 2 21 7 47 11
58 4 11 7 25 8 30 1 11 13 76 21 114 4 16 8 21 13 13 4 -7 7 9 7 35 -1 33 3
47 12 46 6 -2 12 4 12 12 0 8 -5 15 -10 15 -12 0 -3 48 13 68 5 6 7 12 3 12
-3 0 -1 12 5 28 6 15 13 45 15 67 4 35 11 103 16 142 1 7 5 10 9 8 4 -3 10 2
13 11 4 9 2 13 -5 8 -7 -4 -9 0 -5 14 4 11 9 46 11 77 2 31 9 62 14 69 6 7 15
46 20 87 5 41 13 89 19 107 6 18 7 30 1 27 -14 -10 -11 13 7 40 11 18 13 29 6
38 -6 8 -7 29 0 62 5 28 11 84 14 125 3 41 9 77 15 80 5 4 9 20 8 36 -2 55 13
209 22 220 5 6 7 25 4 44 l-4 33 55 -54 c31 -30 108 -112 173 -184z m746 91
c65 -17 126 -48 171 -88 40 -36 84 -118 84 -158 0 -36 -33 -101 -68 -133 l-30
-29 -25 34 c-13 18 -77 107 -142 198 -65 91 -122 171 -128 178 -13 17 72 16
138 -2z m973 -311 c-11 -93 -22 -172 -24 -174 -8 -8 -149 25 -147 35 2 13 185
316 188 312 2 -2 -6 -79 -17 -173z m442 -254 c21 -6 26 -14 28 -49 2 -23 -1
-42 -6 -42 -10 0 -223 89 -231 96 -7 7 183 2 209 -5z m-1039 -21 c77 -26 124
-56 173 -110 74 -82 94 -166 57 -238 -19 -37 -77 -99 -85 -91 -2 2 -63 106
-135 232 l-130 227 30 0 c16 0 57 -9 90 -20z m889 -111 c338 -140 602 -375
784 -697 30 -53 123 -254 206 -447 294 -680 352 -801 483 -999 65 -98 117
-180 115 -182 -3 -3 -733 191 -871 231 -32 9 -66 25 -75 35 -10 11 -28 52 -41
92 -38 123 -78 193 -147 257 -68 65 -130 93 -247 116 -38 7 -70 15 -73 17 -2
3 -11 55 -19 117 -32 243 -60 289 -260 430 -49 35 -93 66 -97 70 -4 4 2 31 14
61 31 78 32 218 2 275 -20 39 -22 75 -3 75 6 0 6 8 -1 19 -6 13 -6 22 0 26 5
3 12 33 16 66 4 39 10 56 15 47 5 -8 9 17 9 62 0 54 3 71 10 60 8 -11 9 -8 4
12 -7 32 13 167 27 185 6 7 8 26 4 43 -4 20 -2 37 7 47 9 12 9 15 1 9 -14 -8
-18 6 -6 17 9 9 28 3 143 -44z m-5412 -324 c118 -208 131 -235 114 -235 -5 0
-47 -23 -93 -51 -148 -90 -320 -189 -329 -189 -8 0 -422 462 -427 477 -3 8
576 211 602 212 6 1 65 -96 133 -214z m4909 -177 c71 -26 154 -103 183 -170
33 -74 32 -141 -3 -200 -29 -49 -87 -102 -99 -90 -10 10 -248 477 -248 487 0
12 110 -5 167 -27z m-4652 -185 c71 -47 208 -165 301 -259 299 -302 517 -686
643 -1133 86 -304 131 -607 201 -1366 43 -473 58 -591 86 -706 13 -56 23 -103
22 -104 -11 -9 -1108 -492 -1288 -568 -676 -284 -978 -360 -1435 -361 -299 0
-509 33 -802 129 -179 58 -233 87 -260 138 -22 42 -38 397 -21 466 14 56 64
106 143 146 123 61 208 181 254 359 12 44 22 81 24 82 2 2 50 -23 108 -56 198
-114 347 -159 550 -167 102 -4 162 -1 240 11 135 22 354 96 549 184 176 79
299 123 432 154 78 19 124 22 288 23 107 0 201 4 208 8 26 17 11 62 -54 159
-138 205 -199 406 -239 793 -34 333 -71 479 -166 665 -110 214 -268 371 -501
495 l-80 43 68 73 c142 155 191 268 181 418 -8 113 10 157 80 196 26 15 111
65 188 110 77 46 147 85 155 88 38 14 87 6 125 -20z m4986 -445 c159 -73 240
-256 167 -378 -14 -25 -37 -56 -51 -68 l-25 -24 -15 24 c-8 12 -70 122 -137
243 -67 121 -125 224 -128 229 -11 19 134 0 189 -26z m399 -574 c215 -49 344
-252 266 -420 -92 -197 -361 -244 -556 -98 -34 26 -58 50 -53 54 4 4 96 33
203 65 107 31 199 61 204 65 5 5 -57 78 -145 171 -133 141 -151 163 -134 170
34 13 143 10 215 -7z m868 -596 l492 -132 -77 -31 c-274 -112 -482 -244 -933
-595 -371 -289 -531 -393 -750 -487 -265 -113 -572 -148 -855 -97 -44 8 -85
15 -92 16 -8 1 -8 8 0 27 6 14 14 28 18 31 3 3 21 48 40 100 39 114 53 142 64
132 5 -4 6 0 2 10 -8 23 14 92 25 76 5 -9 8 -7 9 7 1 11 1 26 0 33 -2 12 28
82 38 92 4 3 6 11 7 18 3 38 5 43 15 36 8 -4 9 1 4 16 -6 17 -4 21 6 14 11 -6
10 -3 -1 12 -8 10 -11 16 -6 12 4 -3 15 0 24 7 10 8 32 26 50 41 48 39 81 112
94 207 l11 82 161 0 c145 1 166 3 210 23 104 48 171 124 212 241 27 75 21 74
139 41 235 -64 388 -26 531 134 33 36 61 66 64 66 3 0 227 -59 498 -132z
m-1332 27 c41 -99 -18 -219 -140 -283 -69 -36 -201 -38 -290 -4 -33 12 -63 25
-67 29 -9 9 447 292 469 293 7 0 20 -16 28 -35z m-6838 -223 c913 -524 1829
-1058 1824 -1064 -4 -3 -126 -51 -272 -106 -146 -55 -335 -128 -420 -162 -330
-133 -420 -154 -635 -155 -252 0 -434 61 -654 218 -52 37 -103 67 -113 67 -29
0 -45 -39 -58 -135 -30 -237 -134 -381 -315 -438 -56 -17 -93 -22 -185 -21
-133 1 -202 16 -451 99 -107 36 -180 55 -211 55 l-48 0 0 -44 c0 -25 20 -116
46 -203 25 -87 56 -201 70 -253 30 -115 42 -290 25 -371 -17 -80 -75 -174
-141 -226 -63 -50 -181 -99 -261 -108 -92 -11 -159 -33 -159 -53 1 -26 33 -92
79 -159 58 -86 136 -254 163 -353 20 -74 23 -109 23 -265 0 -228 -7 -254 -170
-675 -67 -173 -151 -390 -186 -482 -35 -93 -66 -168 -69 -168 -5 0 -852 1457
-944 1624 -21 39 -88 156 -148 260 -97 167 -142 254 -123 234 6 -6 21 1 96 44
13 7 29 19 37 26 7 6 18 12 24 12 6 0 17 8 25 18 8 9 12 11 8 4 -3 -7 10 -1
30 12 20 14 45 28 56 31 11 4 17 10 15 14 -5 7 55 48 63 42 2 -1 7 1 10 6 3 5
25 20 48 33 24 13 43 27 43 32 0 4 6 8 13 8 6 1 43 24 81 53 38 29 76 57 85
62 9 6 20 16 24 23 5 7 12 10 18 7 5 -4 9 -1 9 5 0 6 8 14 18 17 16 6 72 44
98 68 36 32 55 45 64 45 5 0 15 9 22 20 7 11 16 20 21 20 4 0 24 15 43 33 20
17 40 32 45 32 4 0 14 7 21 16 7 9 44 40 83 70 38 29 85 68 103 86 18 19 37
31 42 28 5 -3 12 0 16 6 5 8 2 10 -7 5 -8 -4 -6 -1 4 6 11 7 43 36 72 63 108
102 139 130 145 130 16 0 530 528 620 636 25 30 57 66 71 81 15 15 42 47 60
70 19 23 42 52 52 63 36 41 46 55 98 122 29 37 60 74 68 81 9 8 10 10 3 7 -11
-6 -11 -3 0 14 7 12 15 21 18 21 4 0 15 7 26 16 10 8 12 12 4 8 -10 -5 -9 -1
4 14 10 12 23 19 28 16 4 -3 7 -1 6 3 -2 5 49 57 112 115 63 58 166 161 228
230 112 124 299 351 309 376 3 6 7 12 10 12 2 0 66 -35 141 -78z m6232 -154
c48 -105 2 -221 -112 -284 -49 -27 -61 -29 -153 -28 -79 0 -112 5 -157 23 -32
12 -58 25 -58 29 0 8 440 300 453 301 4 1 17 -18 27 -41z m-599 -375 c55 -138
-78 -286 -256 -286 -67 0 -163 21 -195 43 -13 9 -13 11 0 20 110 69 418 248
428 249 7 1 17 -11 23 -26z m-617 -371 c13 -62 0 -108 -45 -157 -68 -74 -179
-107 -285 -85 -60 13 -174 58 -174 69 1 8 472 219 485 216 6 -1 14 -20 19 -43z
m-646 -244 c5 -7 15 -31 21 -53 15 -56 -1 -104 -50 -153 -58 -59 -110 -76
-212 -70 -73 4 -96 10 -168 45 -100 48 -142 79 -119 87 33 13 496 155 506 155
6 1 16 -5 22 -11z m1283 -8 c38 -12 69 -24 69 -28 -1 -21 -127 -296 -138 -300
-9 -3 -12 37 -12 172 0 97 3 176 6 176 4 0 38 -9 75 -20z m447 -105 c62 -8
117 -15 122 -15 13 0 -7 -52 -26 -66 -9 -7 -27 -9 -47 -4 -36 8 -161 70 -192
94 -20 16 -19 16 5 11 14 -2 76 -12 138 -20z m-120 -124 c94 -39 176 -71 181
-71 6 0 11 -2 11 -5 0 -9 -201 -450 -209 -457 -3 -4 -58 17 -121 48 -63 31
-148 71 -188 90 -63 29 -72 36 -64 51 11 20 144 314 173 382 12 27 24 41 32
38 7 -3 90 -37 185 -76z m-2282 32 c-24 -101 -40 -140 -70 -168 -89 -84 -280
-68 -387 32 -51 48 -58 63 -36 81 13 11 408 78 471 81 26 1 28 -1 22 -26z
m3377 -456 c11 -33 16 -25 -167 -262 -109 -141 -133 -166 -164 -175 -43 -11
-822 -14 -822 -2 0 4 35 81 78 171 48 101 87 171 102 182 20 15 96 26 400 59
206 22 411 44 455 49 104 11 107 11 118 -22z m-8303 -21 c74 -13 213 -39 308
-57 l172 -33 0 -232 c0 -269 -1 -271 -86 -284 -70 -12 -412 -11 -419 0 -6 9
-80 377 -105 520 -6 36 -14 75 -17 88 -6 27 -17 27 147 -2z m4280 -180 c47
-31 96 -100 121 -172 23 -64 24 -93 5 -139 -19 -44 -124 -120 -142 -103 -7 8
-164 413 -164 425 0 33 126 25 180 -11z m3495 -332 c363 -41 792 -164 1110
-319 119 -59 305 -171 305 -184 0 -3 -161 -84 -358 -180 -246 -120 -367 -174
-390 -173 -23 0 -55 17 -120 65 -346 258 -758 422 -1172 467 -208 22 -198 16
-167 103 30 82 66 130 126 168 117 75 327 91 666 53z m-1082 -119 c97 -49 177
-94 177 -99 0 -13 -234 -436 -242 -436 -6 0 -348 196 -356 205 -7 6 229 426
238 423 4 -2 86 -43 183 -93z m-6221 -98 c45 -30 89 -116 142 -277 182 -555
165 -1123 -54 -1755 -63 -180 -145 -374 -320 -760 -157 -346 -225 -503 -332
-770 -44 -110 -81 -201 -82 -202 -3 -4 -1290 115 -1436 133 -778 92 -1333 306
-1727 666 -120 109 -435 433 -451 465 -21 38 -13 67 36 148 27 44 82 135 122
203 40 68 84 130 97 139 19 12 53 17 141 18 98 1 127 5 182 26 81 31 158 81
243 160 l66 60 28 -51 c178 -329 431 -535 767 -626 96 -26 314 -59 608 -93
244 -29 340 -61 541 -183 96 -58 122 -70 178 -82 23 -5 26 -2 38 45 9 33 11
75 6 123 -16 174 32 397 154 708 93 238 150 412 194 587 27 110 31 143 30 256
0 112 -4 142 -27 220 -35 114 -70 193 -144 327 l-60 106 87 27 c194 60 324
161 396 308 32 64 43 79 69 86 17 5 131 9 253 9 213 1 223 0 255 -21z m3959
-73 c69 -38 153 -133 180 -203 29 -78 24 -165 -13 -213 -30 -39 -86 -70 -131
-72 l-31 -1 -58 250 c-31 138 -58 258 -58 267 0 21 37 12 111 -28z m-614 -128
c-3 -7 -2 -17 3 -22 12 -14 75 -289 109 -474 70 -392 95 -688 95 -1145 0 -418
-18 -715 -75 -1205 -23 -205 -31 -236 -67 -254 -15 -7 -108 -23 -207 -35
-1000 -117 -1723 -106 -2460 35 -159 31 -367 82 -379 94 -5 5 -16 6 -25 3 -13
-4 -14 -3 -1 5 10 8 19 7 29 -1 12 -10 13 -9 7 1 -10 16 13 45 30 38 8 -3 13
0 11 7 -1 6 8 13 20 15 12 2 25 12 28 23 4 10 13 19 21 19 8 0 14 5 14 10 0 6
6 10 13 10 7 0 23 10 37 23 14 12 34 21 45 19 13 -2 16 0 8 5 -14 10 37 55 75
68 13 4 21 9 18 12 -7 8 46 51 78 63 15 5 24 14 21 20 -3 5 1 10 9 10 9 0 16
4 16 10 0 5 7 7 15 4 9 -4 15 0 15 9 0 8 12 23 26 33 25 18 48 37 103 84 15
13 32 18 45 14 15 -4 17 -3 7 4 -10 7 -7 13 14 28 15 11 44 35 64 54 20 19 40
34 44 32 8 -2 37 22 37 32 0 14 40 45 45 35 4 -5 11 -7 16 -3 5 3 7 10 4 15
-9 13 64 79 87 79 11 0 17 4 14 9 -7 11 50 61 70 61 8 0 13 4 10 9 -6 9 23 43
72 81 18 14 57 49 87 77 35 34 60 50 70 47 11 -4 13 -2 10 9 -4 8 6 24 24 40
16 13 27 28 24 31 -4 3 1 6 9 6 9 0 31 17 50 38 19 20 43 42 54 48 10 6 17 13
14 15 -5 5 40 50 66 65 11 6 17 13 14 15 -5 5 40 50 64 64 10 6 17 13 17 17 0
9 77 87 114 116 17 12 29 26 28 30 -1 4 4 6 12 6 8 -1 11 4 8 13 -3 8 0 13 8
11 8 -2 15 7 17 20 2 16 8 22 18 18 8 -3 14 1 14 9 0 8 7 15 15 15 9 0 12 6 8
17 -4 10 -2 14 4 10 6 -4 16 0 23 8 7 8 10 15 7 15 -3 0 21 28 54 61 32 34 59
66 59 70 0 5 7 9 15 9 9 0 20 11 26 24 8 16 17 22 27 18 11 -4 14 -1 10 9 -3
8 0 23 8 34 8 10 14 13 14 6 0 -7 5 -9 10 -6 6 3 10 13 10 22 0 8 11 28 25 45
14 16 25 25 25 18 0 -7 5 -6 14 2 10 9 11 15 2 20 -8 6 -8 8 1 8 6 0 20 14 30
30 9 17 25 30 35 30 11 0 15 5 12 15 -4 8 -1 15 5 15 6 0 11 5 11 10 0 6 13
24 29 41 20 20 31 26 34 17 3 -7 6 -3 6 9 1 27 49 85 64 76 6 -4 8 0 5 9 -4 8
2 20 13 26 10 7 18 16 16 21 -1 5 13 25 31 45 18 20 30 36 27 36 -3 0 6 12 20
27 14 15 25 32 25 37 0 4 18 24 39 42 21 19 42 46 45 60 5 17 12 24 21 20 10
-3 12 0 8 11 -5 12 -3 14 7 8 8 -5 11 -4 7 2 -3 5 7 25 22 44 15 19 31 41 34
49 4 11 6 10 7 -5 1 -19 1 -19 11 -2 6 10 8 21 5 24 -6 7 19 42 68 97 20 22
36 46 36 53 0 7 4 13 9 13 5 0 14 14 21 30 7 17 19 30 27 30 8 0 11 -5 7 -12
-4 -7 -3 -9 2 -5 4 4 9 20 10 35 2 37 3 42 10 42 3 0 4 -6 1 -14z m3422 -22
c695 -113 1260 -505 1716 -1189 127 -191 289 -493 275 -510 -9 -11 -52 10
-213 103 -112 64 -674 389 -1249 722 l-1046 605 51 100 c64 124 113 181 170
194 51 11 96 7 296 -25z m-9431 -186 c23 -29 1214 -2089 1210 -2094 -4 -4
-779 117 -968 151 -162 29 -300 76 -408 137 -82 47 -226 167 -263 220 -26 37
-29 40 -64 83 -14 17 -57 93 -96 170 -39 77 -77 146 -84 154 -22 23 -49 4
-116 -82 -176 -223 -400 -285 -627 -172 -37 19 -76 42 -87 52 -11 10 -37 31
-57 46 -21 15 -106 102 -189 192 -126 137 -224 225 -251 225 -12 0 -51 -126
-102 -330 -94 -378 -168 -506 -342 -587 -55 -26 -68 -28 -184 -28 -113 1 -132
4 -195 29 -77 31 -161 53 -170 44 -14 -14 -20 -101 -12 -183 25 -261 -58 -551
-216 -750 -79 -99 -152 -165 -492 -440 -148 -121 -310 -252 -360 -292 l-90
-73 -3 1122 c-1 618 0 1129 3 1136 2 6 18 12 34 12 58 0 399 62 556 102 88 22
221 60 295 84 148 49 143 47 136 36 -8 -14 27 -10 49 4 11 8 30 14 43 14 12 0
38 7 58 15 19 8 32 10 29 6 -2 -5 2 -12 11 -15 8 -3 12 -2 9 4 -3 6 -3 10 2
11 4 0 31 2 58 4 28 3 84 11 125 19 41 8 91 15 111 15 20 1 53 8 73 16 20 9
42 15 49 14 7 -1 19 1 27 4 34 13 131 28 141 21 7 -4 9 -3 6 2 -3 6 31 18 76
28 164 35 212 47 232 57 12 6 37 11 57 12 20 1 34 5 32 8 -2 3 31 14 74 24 42
10 86 21 97 26 34 15 136 49 143 47 4 -1 23 6 42 15 19 8 38 13 43 10 4 -3 31
7 60 21 29 13 74 30 100 36 27 6 66 19 87 30 21 11 52 22 70 25 18 3 39 13 47
21 9 8 22 13 29 10 8 -3 14 -1 14 4 0 6 9 10 20 10 11 0 48 14 81 31 34 16 58
26 55 21 -3 -6 2 -8 13 -5 11 3 22 11 25 19 3 8 14 14 25 14 11 0 22 4 25 9 3
5 21 12 41 15 19 4 38 13 42 20 5 7 17 15 28 19 48 14 97 35 107 45 7 7 20 12
31 12 21 0 59 18 68 33 4 5 19 11 34 12 15 2 34 9 43 17 27 21 61 38 76 38 8
0 16 3 18 8 2 4 60 36 130 72 71 36 128 68 128 73 0 4 9 7 20 7 11 0 20 5 20
10 0 6 6 10 13 10 7 0 28 11 47 25 41 28 44 29 58 13z m10157 -920 c874 -505
1191 -693 1193 -708 2 -14 -4 -21 -23 -26 -45 -11 -612 4 -735 20 -762 97
-1309 384 -1732 910 -178 221 -191 271 -99 394 21 29 52 77 67 107 l29 54 55
-32 c30 -17 591 -341 1245 -719z m-3444 567 c57 -36 117 -101 147 -160 22 -41
27 -64 27 -126 0 -66 -3 -81 -27 -117 -28 -41 -65 -67 -120 -83 -20 -5 -30 -4
-33 4 -2 7 -13 107 -25 222 -11 116 -23 227 -26 248 -7 45 2 46 57 12z m1577
-174 c89 -57 162 -105 162 -108 0 -2 -61 -99 -136 -214 l-137 -209 -126 87
c-69 47 -147 101 -173 120 l-47 34 132 200 c92 139 137 198 148 196 8 -3 88
-50 177 -106z m447 -204 c137 -176 359 -402 490 -499 131 -96 288 -187 449
-260 137 -61 168 -83 185 -126 9 -23 25 -246 48 -669 l6 -112 -26 -6 c-21 -6
-57 15 -214 119 -220 146 -358 255 -514 404 -264 252 -454 502 -600 788 -86
169 -97 269 -44 374 24 46 91 130 103 129 4 0 57 -64 117 -142z m-215 -484
c225 -359 270 -434 270 -458 0 -12 -30 -98 -66 -191 -36 -93 -80 -206 -97
-251 l-32 -82 -58 89 c-60 94 -350 704 -368 775 -15 59 1 108 55 174 25 30 64
86 88 123 23 37 45 68 48 68 3 0 75 -111 160 -247z m-976 179 c5 -8 -179 -262
-190 -262 -10 0 -110 83 -113 94 -2 8 275 175 291 176 4 0 9 -4 12 -8z m-740
-74 c96 -96 131 -219 91 -315 -22 -52 -42 -72 -100 -99 -91 -43 -85 -58 -85
226 0 222 2 250 16 250 9 0 44 -28 78 -62z m-8494 -239 c132 -116 239 -214
237 -217 -43 -84 -253 -422 -262 -422 -12 0 -411 223 -428 239 -9 9 193 611
205 611 5 0 116 -95 248 -211z m9303 -168 c97 -43 131 -103 91 -159 -15 -22
-16 -22 -67 45 -128 166 -127 161 -24 114z m-54 -181 c169 -245 255 -494 281
-812 13 -146 7 -263 -26 -533 -29 -242 -56 -529 -84 -888 -21 -265 -20 -308 6
-464 4 -30 2 -33 -19 -33 -36 0 -677 658 -677 695 0 14 10 54 22 88 28 81 29
210 4 282 -34 94 -119 203 -224 288 l-33 26 46 56 c25 31 60 84 77 118 29 56
33 71 33 147 0 79 -3 91 -41 170 -23 47 -58 109 -78 139 -20 29 -36 54 -36 56
0 1 30 33 68 72 63 65 122 161 122 198 0 25 30 73 78 124 23 25 42 49 42 54 0
4 19 28 42 53 22 24 49 56 58 71 10 16 32 41 49 57 17 17 31 36 31 43 0 7 4
13 8 13 4 0 26 24 47 53 22 28 44 55 50 59 5 4 6 8 1 8 -5 0 -3 6 3 13 6 8 10
16 8 19 -13 27 98 -107 142 -172z m-754 -95 c135 -134 138 -343 7 -431 -33
-23 -129 -50 -139 -40 -6 6 15 511 23 534 6 19 57 -10 109 -63z m-88 -654
c106 -77 157 -178 151 -303 -3 -66 -7 -82 -33 -120 -29 -40 -96 -85 -152 -103
l-23 -6 0 280 c0 155 4 281 8 281 5 0 27 -13 49 -29z m-4254 -718 c141 -55
197 -81 197 -92 0 -26 -43 -92 -73 -115 -43 -32 -136 -28 -204 7 -109 56 -163
130 -163 223 0 56 6 68 29 59 9 -3 105 -40 214 -82z m4285 17 c81 -38 173
-129 210 -207 23 -50 27 -71 27 -148 0 -102 -15 -145 -73 -203 -53 -52 -114
-76 -198 -76 -62 0 -81 4 -147 37 -52 26 -91 54 -128 95 -49 52 -119 165 -119
190 0 5 69 -8 153 -29 83 -21 179 -41 213 -45 l61 -6 -8 63 c-7 54 -57 283
-75 342 -8 24 11 22 84 -13z m-3652 -210 c147 -33 269 -62 271 -64 8 -8 -18
-84 -40 -116 -70 -105 -236 -95 -362 21 -66 61 -168 219 -140 219 2 0 124 -27
271 -60z m-1367 -70 c24 -12 69 -114 82 -184 20 -107 -23 -234 -91 -269 -38
-19 -122 -19 -142 1 -15 15 40 393 63 432 20 31 53 39 88 20z m2089 -44 c123
-13 225 -26 228 -29 10 -9 -16 -84 -38 -112 -47 -59 -156 -81 -249 -50 -62 21
-137 81 -181 145 -21 29 -38 57 -38 62 0 12 29 10 278 -16z m1656 -23 c-17
-96 -57 -149 -138 -184 -88 -38 -187 -24 -280 40 -45 31 -136 126 -136 142 0
5 17 9 38 10 20 0 123 6 227 13 105 7 214 14 243 15 l53 1 -7 -37z m716 25
c-1 -27 -38 -94 -70 -125 -50 -49 -104 -66 -197 -61 -56 2 -92 10 -127 27 -47
23 -186 144 -186 162 0 5 130 9 290 9 225 0 290 -3 290 -12z m-1430 -58 c0
-33 -25 -83 -56 -112 -71 -66 -183 -80 -275 -33 -54 26 -123 86 -160 138 l-20
27 255 0 c251 0 256 0 256 -20z m867 -107 c86 -55 211 -110 276 -122 98 -18
182 12 294 106 l38 31 135 -94 c74 -52 163 -109 197 -126 84 -41 167 -48 248
-19 71 25 113 26 163 6 25 -11 146 -124 364 -342 180 -180 326 -329 324 -330
-2 -2 -72 4 -155 13 -146 15 -160 15 -409 -6 -352 -29 -601 -55 -832 -87 -226
-30 -535 -37 -675 -14 -192 31 -392 95 -523 168 -132 73 -299 190 -324 226 -3
6 6 20 20 31 15 11 29 24 30 28 2 5 8 8 12 8 5 0 22 12 38 28 41 38 66 58 74
57 3 0 24 16 45 35 21 19 56 48 78 64 22 16 46 38 53 48 7 10 17 18 22 18 5 0
22 12 38 28 71 67 95 82 126 82 58 0 150 55 219 131 34 38 63 69 64 69 2 0 28
-16 60 -37z m-4622 -332 c-5 -41 -57 -214 -109 -366 -240 -702 -595 -1340
-1169 -2107 -139 -185 -173 -218 -225 -218 -21 0 -306 120 -529 223 -652 303
-1208 642 -1653 1011 -130 108 -422 377 -416 383 10 10 84 8 78 -2 -3 -5 1 -5
9 1 8 6 43 14 79 18 36 3 89 9 118 12 35 4 52 3 52 -4 0 -13 31 -4 42 12 4 6
36 11 72 11 35 0 60 3 54 6 -9 6 121 25 152 22 8 -1 45 5 82 13 37 9 71 13 76
10 5 -3 26 1 48 9 21 7 50 11 63 8 13 -3 26 -2 30 4 3 5 62 16 130 26 69 9
127 21 130 25 3 5 13 9 21 9 8 0 33 3 55 7 22 4 66 9 98 11 32 3 71 12 87 20
27 14 55 21 115 29 11 1 39 8 63 15 24 6 52 9 64 5 13 -4 18 -2 14 5 -4 6 5
13 21 17 15 4 61 15 102 25 40 10 77 16 83 13 5 -3 19 1 32 10 13 8 37 13 55
11 18 -2 29 0 26 5 -3 5 7 12 22 15 15 3 44 10 63 15 73 19 142 30 152 24 6
-4 8 -2 4 4 -5 8 32 30 42 23 1 -1 16 6 34 15 26 14 30 14 25 1 -4 -11 0 -13
13 -10 12 3 16 11 13 21 -5 12 -2 14 12 9 9 -4 24 -2 32 4 7 7 28 12 45 11 19
0 27 2 20 7 -8 4 16 13 58 20 38 7 70 17 70 22 0 5 11 9 24 9 14 0 27 4 30 9
3 4 28 11 56 15 27 4 50 11 50 15 0 5 15 12 33 15 19 4 51 15 73 25 21 10 54
22 71 26 18 3 35 11 38 16 4 5 15 9 25 9 11 0 34 8 53 19 18 10 52 22 75 26
23 4 60 15 81 26 22 10 44 19 49 19 4 0 27 9 49 20 23 11 49 17 57 14 9 -4 18
0 22 9 3 9 13 13 27 9 12 -3 19 -1 15 3 -4 4 12 17 35 27 23 11 51 24 63 30
11 5 24 8 30 7 5 -1 22 3 37 9 16 7 32 12 37 12 5 0 10 4 12 8 5 13 87 52 108
52 10 0 22 5 25 11 4 6 14 8 22 5 9 -4 11 -2 7 6 -5 7 0 9 14 6 12 -4 20 -2
16 3 -3 5 0 9 6 9 6 0 30 9 52 20 23 11 51 20 62 20 12 0 37 14 56 30 19 16
36 30 37 30 1 0 0 -13 -2 -29z m3456 -113 c27 -29 47 -57 46 -61 -6 -19 -252
-195 -261 -187 -5 5 2 27 16 52 14 24 51 89 83 146 32 56 61 102 63 102 2 0
26 -24 53 -52z m-2842 -83 c74 -149 68 -281 -16 -375 -56 -62 -102 -79 -167
-60 -25 7 -50 18 -54 24 -8 10 23 126 123 451 l27 89 29 -34 c15 -19 42 -62
58 -95z m3016 -285 c68 -90 123 -165 122 -166 -1 0 -94 -67 -206 -148 -112
-81 -204 -146 -205 -144 -2 2 -55 79 -120 171 -65 93 -115 171 -112 175 22 21
383 280 389 278 4 -1 64 -75 132 -166z m-3283 -357 c45 -95 51 -208 16 -285
-28 -61 -78 -115 -114 -124 -29 -7 -141 -1 -150 9 -9 8 197 467 209 467 4 0
22 -30 39 -67z m-2995 -19 c-3 -3 -12 -4 -19 -1 -8 3 -5 6 6 6 11 1 17 -2 13
-5z m-2109 -257 l142 -182 -30 -27 c-98 -89 -229 -37 -303 121 -34 71 -41 156
-17 201 14 28 50 70 59 70 3 -1 70 -83 149 -183z m7387 -19 c54 -84 105 -161
113 -171 14 -15 14 -19 1 -31 -16 -15 -391 -244 -411 -251 -8 -3 -51 61 -117
177 -57 100 -100 183 -95 185 5 2 97 57 204 123 107 66 198 120 201 120 4 0
51 -69 104 -152z m1258 -14 c204 -92 398 -178 430 -192 52 -23 57 -28 57 -56
l0 -32 -230 -87 c-127 -48 -244 -90 -260 -93 -25 -6 -74 22 -370 206 -187 117
-340 215 -340 219 0 7 193 143 253 177 23 13 52 24 65 24 12 0 190 -75 395
-166z m-760 -169 c86 -18 274 -115 446 -230 307 -204 585 -479 828 -820 83
-117 203 -312 203 -331 0 -21 -82 -29 -305 -28 -260 1 -486 30 -521 67 -12 12
-44 74 -72 137 -126 287 -280 510 -506 735 -110 110 -335 291 -393 318 -12 5
-23 14 -23 18 0 13 93 90 133 111 33 16 93 33 132 37 6 0 41 -6 78 -14z
m-7378 -339 l150 -144 -21 -28 c-56 -76 -131 -93 -219 -49 -95 46 -156 151
-175 302 -5 40 -7 93 -3 118 l6 45 56 -50 c31 -27 124 -115 206 -194z m4303
63 c10 -179 -94 -303 -240 -285 -29 4 -59 10 -66 15 -9 6 18 60 104 207 64
109 123 210 132 224 l16 25 25 -55 c17 -38 26 -79 29 -131z m2702 36 c68 -35
280 -206 388 -314 389 -389 621 -904 692 -1536 5 -49 14 -193 20 -320 5 -126
12 -276 14 -333 l5 -103 -26 -10 c-14 -5 -27 -8 -28 -7 -1 2 -325 561 -719
1242 -419 726 -714 1246 -711 1255 5 17 146 110 205 135 51 22 104 19 160 -9z
m-1112 -257 l62 -116 -43 -25 c-23 -14 -124 -66 -224 -116 l-183 -91 -90 187
c-49 102 -90 188 -90 190 0 1 98 52 217 112 l218 108 35 -66 c20 -36 64 -118
98 -183z m1371 -1176 c407 -704 710 -1240 707 -1248 -4 -11 -37 1 -146 56
-623 312 -1091 753 -1335 1255 -67 138 -98 221 -135 360 -41 155 -122 594
-115 622 10 43 68 92 180 153 84 45 113 56 121 47 6 -7 332 -567 723 -1245z
m-2302 1163 c1 -5 -63 -39 -143 -74 -162 -71 -153 -71 -178 9 -8 25 -17 53
-21 63 -7 16 3 17 166 15 103 -2 174 -7 176 -13z m-4469 -229 c188 -132 212
-152 212 -177 0 -26 -3 -27 -90 -43 -74 -14 -97 -15 -131 -5 -55 17 -132 88
-164 152 -35 72 -69 234 -47 225 5 -1 104 -70 220 -152z m5656 -82 c33 -222
50 -310 87 -440 72 -259 212 -532 385 -754 48 -61 64 -97 64 -140 0 -17 -68
-166 -171 -372 -94 -189 -173 -345 -174 -346 -13 -14 -63 51 -119 153 -301
552 -446 1175 -397 1708 14 156 24 198 54 232 18 21 236 137 244 130 2 -1 14
-78 27 -171z m-2212 71 c109 -234 -89 -501 -300 -405 l-42 19 93 143 c174 267
202 308 210 308 4 0 22 -29 39 -65z m1778 -383 c0 -192 5 -309 14 -375 21
-136 16 -156 -59 -231 -34 -34 -98 -89 -141 -121 -44 -32 -113 -84 -156 -116
l-76 -57 -7 136 c-11 206 9 488 50 713 22 116 31 142 63 172 23 22 281 154
305 156 4 1 7 -124 7 -277z m-1080 203 c18 -92 25 -410 10 -507 -37 -253 -133
-499 -285 -727 -35 -53 -146 -202 -246 -331 -404 -522 -512 -677 -625 -895
-74 -143 -72 -140 -78 -134 -9 9 -236 876 -236 901 0 20 20 49 70 105 38 43
87 110 107 148 38 70 38 70 37 185 -1 102 -4 125 -31 202 l-31 87 85 42 c101
51 202 140 235 207 21 43 23 60 23 203 l0 156 94 28 c98 30 192 83 226 128 20
27 53 48 39 24 -6 -9 -5 -9 8 0 8 7 19 9 23 5 5 -4 5 -2 1 5 -4 8 12 17 48 27
30 9 59 16 65 16 6 0 11 4 11 8 0 5 6 9 14 9 8 0 37 10 65 22 29 12 57 19 63
15 7 -5 8 -3 3 6 -6 10 -4 12 8 7 9 -3 20 0 24 7 9 14 95 46 125 46 10 0 18 5
18 11 0 6 5 9 12 7 7 -3 20 3 30 11 10 9 24 16 31 16 7 1 11 5 10 11 -1 5 7
10 17 10 15 0 21 -13 30 -61z m166 -59 c37 -67 37 -121 1 -152 -16 -13 -32
-24 -36 -24 -5 0 -9 19 -9 43 -1 23 -6 74 -11 112 -6 39 -11 81 -11 95 l0 25
20 -25 c11 -14 31 -47 46 -74z m-3709 -133 c123 -70 223 -132 223 -139 0 -16
-65 -73 -97 -85 -45 -17 -98 -10 -161 21 -108 54 -160 136 -195 308 -3 12 -2
22 1 22 4 0 107 -57 229 -127z m2457 -202 c70 -156 29 -323 -100 -414 -61 -43
-160 -49 -209 -13 -17 12 -9 28 125 250 78 130 146 236 150 236 4 0 19 -27 34
-59z m-1834 -126 l251 -125 -27 -36 c-57 -74 -130 -102 -219 -84 -113 24 -204
121 -246 265 -31 105 -31 105 -20 105 6 0 124 -56 261 -125z m-930 -221 c0 -6
-57 -18 -142 -28 -79 -9 -161 -20 -183 -23 -40 -5 -39 -5 33 41 41 25 75 46
77 46 2 0 43 25 92 55 l88 54 17 -67 c10 -37 18 -72 18 -78z m1600 -132 c107
-60 196 -114 198 -120 5 -16 -86 -81 -132 -93 -111 -30 -258 50 -319 175 -27
54 -47 134 -47 182 l0 24 53 -29 c28 -16 140 -79 247 -139z m-381 1 c80 -163
169 -264 258 -294 40 -13 152 -17 238 -9 l50 4 40 -114 c70 -200 104 -241 286
-335 59 -31 128 -69 152 -85 l44 -28 56 -198 c50 -180 166 -618 181 -686 5
-24 3 -28 -15 -28 -12 0 -42 17 -68 39 -155 129 -451 287 -827 440 -280 114
-564 239 -674 297 -312 166 -529 388 -684 700 -65 130 -114 263 -91 244 11
-10 15 -10 15 0 0 8 14 11 44 9 24 -2 42 -1 41 2 -4 5 139 27 215 33 19 1 53
7 75 13 22 6 79 16 127 23 58 9 85 17 81 24 -4 6 6 3 21 -8 16 -10 25 -12 21
-5 -6 9 -3 10 11 4 95 -41 134 -48 202 -36 37 7 87 23 112 36 25 12 47 23 50
24 3 1 21 -29 39 -66z m-1266 -200 c14 -114 25 -208 24 -209 -2 -2 -145 -17
-277 -29 -35 -4 -98 -10 -139 -15 -42 -5 -78 -7 -82 -4 -3 2 -9 61 -13 131 -4
70 -9 151 -13 179 -5 46 -3 54 23 82 l29 32 200 19 c110 10 205 19 211 20 6 1
21 -81 37 -206z m2531 -23 c28 -58 31 -75 31 -155 0 -78 -4 -99 -29 -153 -37
-79 -114 -153 -180 -172 -60 -16 -151 -8 -203 18 -52 27 -123 100 -157 162
-36 66 -59 178 -50 246 5 45 12 57 39 79 l34 25 91 -125 c86 -117 141 -175
168 -175 19 0 47 68 91 220 23 80 45 154 48 165 5 17 10 14 46 -25 22 -25 54
-74 71 -110z m-3724 -75 l0 -205 -239 0 c-132 0 -241 3 -243 8 -2 4 -2 96 0
205 l3 197 239 0 240 0 0 -205z m1354 67 c31 -74 56 -135 56 -138 0 -7 -64 -4
-77 4 -6 4 -16 19 -21 32 -10 27 -28 248 -19 240 3 -3 30 -65 61 -138z m-538
-335 c45 -25 225 -250 344 -426 84 -126 233 -395 221 -399 -6 -2 -124 13 -263
33 -179 26 -260 41 -278 54 -26 18 -60 80 -274 493 l-122 236 120 9 c173 14
228 14 252 0z m-582 -43 c120 -42 215 -163 365 -462 161 -322 257 -643 307
-1025 21 -159 26 -519 7 -538 -9 -9 -66 26 -245 146 -405 274 -426 290 -434
330 -3 19 0 81 7 138 17 134 15 433 -4 572 -33 236 -100 474 -198 704 -27 62
-49 119 -49 127 0 12 15 17 90 27 36 5 109 -4 154 -19z m-366 -23 c33 -35 157
-349 206 -516 83 -292 104 -601 61 -913 -48 -343 -188 -745 -378 -1084 -188
-337 -201 -358 -222 -355 -20 2 -20 10 -23 1431 -1 984 1 1433 8 1440 14 14
97 23 223 25 97 1 100 0 125 -28z"/>
<path d="M2068 31103 c6 -2 18 -2 25 0 6 3 1 5 -13 5 -14 0 -19 -2 -12 -5z"/>
<path d="M7410 28826 c0 -2 7 -6 15 -10 8 -3 15 -1 15 4 0 6 -7 10 -15 10 -8
0 -15 -2 -15 -4z"/>
<path d="M8560 27870 c0 -5 5 -10 11 -10 5 0 7 5 4 10 -3 6 -8 10 -11 10 -2 0
-4 -4 -4 -10z"/>
<path d="M8640 27790 c0 -5 5 -10 11 -10 5 0 7 5 4 10 -3 6 -8 10 -11 10 -2 0
-4 -4 -4 -10z"/>
<path d="M8880 27550 c0 -5 5 -10 11 -10 5 0 7 5 4 10 -3 6 -8 10 -11 10 -2 0
-4 -4 -4 -10z"/>
<path d="M9040 27390 c0 -5 5 -10 11 -10 5 0 7 5 4 10 -3 6 -8 10 -11 10 -2 0
-4 -4 -4 -10z"/>
<path d="M9965 26310 c3 -5 8 -10 11 -10 2 0 4 5 4 10 0 6 -5 10 -11 10 -5 0
-7 -4 -4 -10z"/>
<path d="M8511 19164 c0 -11 3 -14 6 -6 3 7 2 16 -1 19 -3 4 -6 -2 -5 -13z"/>
<path d="M11380 13500 c-9 -6 -10 -10 -3 -10 6 0 15 5 18 10 8 12 4 12 -15 0z"/>
<path d="M10045 11250 c-3 -5 -1 -10 4 -10 6 0 11 5 11 10 0 6 -2 10 -4 10 -3
0 -8 -4 -11 -10z"/>
<path d="M0 25151 l0 -1819 82 -76 c74 -68 80 -76 56 -76 -15 0 -46 15 -70 33
-71 54 -68 55 -68 -16 l0 -64 126 -102 c69 -57 124 -104 122 -105 -2 -2 -39 1
-83 5 -44 4 -99 8 -122 8 l-43 1 0 -192 1 -193 92 -70 c194 -148 344 -271 423
-347 86 -82 124 -143 179 -283 44 -112 63 -145 85 -145 11 0 50 30 88 68 148
146 338 215 661 242 203 16 280 14 331 -12 59 -30 86 -71 175 -272 109 -242
127 -310 129 -471 0 -71 -3 -181 -8 -242 -11 -136 -12 -135 107 -103 95 27
236 31 332 11 172 -36 529 -185 615 -257 75 -64 86 -158 49 -439 -40 -304 -95
-454 -213 -582 -55 -59 -66 -77 -66 -106 0 -41 9 -49 75 -65 78 -19 203 -85
277 -146 82 -68 165 -165 271 -320 45 -65 109 -157 143 -204 l61 -86 -125
-171 c-188 -257 -249 -334 -323 -406 -81 -79 -195 -142 -301 -165 -76 -17
-108 -36 -108 -63 0 -9 25 -41 56 -71 158 -156 220 -326 259 -714 19 -185 22
-297 11 -315 -5 -7 -103 -60 -218 -116 -366 -180 -530 -215 -781 -163 -101 21
-108 21 -124 5 -15 -15 -16 -22 -5 -59 7 -24 20 -83 29 -133 28 -153 -2 -306
-107 -555 -27 -63 -63 -152 -80 -196 -54 -142 -107 -194 -199 -194 -22 0 -87
6 -143 14 -57 8 -152 20 -213 26 -267 29 -436 100 -578 242 -32 32 -66 58 -76
58 -28 0 -47 -29 -60 -95 -18 -88 -81 -210 -149 -290 -83 -99 -226 -214 -464
-373 l-108 -72 0 -201 0 -201 129 4 128 4 -26 -21 c-14 -12 -72 -57 -129 -100
l-102 -78 0 -64 c0 -62 1 -64 23 -58 23 8 90 54 95 67 2 4 8 8 13 8 6 0 -22
-36 -60 -80 l-71 -80 0 -60 c0 -33 3 -60 6 -60 3 0 49 41 103 91 53 51 152
139 221 198 271 229 386 330 408 361 13 17 26 29 29 26 3 -2 16 -1 30 5 13 5
39 11 56 14 53 8 119 23 170 38 26 8 47 13 47 10 0 -3 6 -1 13 5 6 5 28 13 47
16 19 4 44 11 55 16 11 5 47 17 81 28 55 18 64 18 95 5 134 -56 392 -115 714
-162 116 -17 221 -34 235 -37 l25 -6 -35 -30 c-302 -260 -1218 -547 -1915
-598 -134 -10 -321 -7 -368 6 -16 5 -17 -83 -17 -1742 l0 -1747 108 7 c593 37
1191 294 1652 708 353 318 646 786 823 1319 102 305 155 581 173 901 6 119 8
127 30 139 13 7 24 16 24 21 0 4 7 8 16 8 9 0 33 10 53 23 58 36 75 46 99 56
12 6 22 15 22 20 0 5 12 11 27 14 18 3 45 -6 87 -28 88 -49 342 -156 493 -208
677 -236 1448 -244 2083 -22 240 84 495 220 707 378 133 99 412 377 509 507
337 451 512 944 531 1495 14 418 -77 853 -267 1273 -250 556 -660 1019 -1244
1407 l-91 60 -1 157 -2 157 61 37 c170 105 476 353 653 531 489 489 766 1051
871 1768 24 165 24 514 0 680 -80 551 -321 1047 -700 1441 -311 324 -629 521
-1087 674 -760 254 -1502 203 -2342 -160 -79 -34 -163 -74 -186 -88 -56 -32
-86 -35 -108 -11 -9 10 -21 19 -27 19 -5 0 -22 9 -38 21 -16 11 -29 18 -29 14
0 -3 -10 3 -22 15 -12 11 -25 21 -30 21 -4 1 -11 2 -15 3 -5 1 -22 10 -39 20
l-31 19 -7 126 c-35 633 -218 1197 -552 1701 -112 168 -194 270 -344 424 -222
228 -454 401 -720 536 -341 173 -659 259 -1047 285 l-93 6 0 -1820z m197 1699
c273 -40 311 -49 333 -80 39 -55 42 -8 -62 -1270 -33 -410 -68 -830 -77 -935
l-16 -190 -40 1 c-22 1 -102 2 -177 3 l-138 1 0 1245 c0 1227 0 1245 19 1245
11 0 82 -9 158 -20z m668 -169 c28 -12 103 -47 167 -78 136 -65 145 -76 134
-176 -14 -139 -263 -1638 -273 -1648 -8 -8 -24 -8 -60 1 -26 6 -68 13 -93 15
-25 3 -65 7 -90 10 -25 3 -62 5 -82 5 -21 0 -38 4 -38 10 0 6 -5 8 -12 4 -8
-5 -10 8 -6 47 3 30 39 469 79 975 l74 921 75 -32 c41 -18 98 -43 125 -54z
m645 -369 c212 -175 215 -178 218 -219 2 -28 -67 -322 -224 -950 -124 -499
-228 -910 -229 -912 -2 -1 -10 1 -17 5 -7 5 -24 10 -38 12 -14 1 -69 11 -122
22 -53 11 -105 20 -116 20 -10 0 -26 6 -36 13 -17 13 -17 22 14 218 60 389
311 1944 315 1957 3 6 8 12 12 11 4 0 105 -80 223 -177z m510 -527 c128 -180
160 -231 160 -257 0 -40 -311 -978 -322 -972 -4 3 -8 0 -8 -6 0 -7 -7 -7 -22
2 -13 7 -26 13 -30 14 -5 1 -10 3 -13 4 -3 1 -9 3 -14 4 -5 0 -13 4 -17 9 -4
4 -20 7 -35 7 -15 0 -31 5 -34 11 -4 6 -13 8 -21 5 -8 -3 -14 -2 -14 2 0 4 -8
8 -17 9 -23 2 -41 7 -78 22 -16 7 -39 13 -51 13 -19 0 -10 41 145 667 92 366
170 672 174 679 5 6 15 12 22 12 8 0 86 -101 175 -225z m290 -447 c12 -29 56
-129 97 -222 125 -282 123 -304 -50 -688 -63 -139 -134 -298 -158 -353 -51
-119 -57 -129 -74 -115 -6 5 -15 7 -18 3 -4 -3 -7 -2 -7 4 0 5 -6 10 -12 10
-22 0 -242 85 -257 99 -11 10 20 112 193 639 114 345 211 638 216 651 16 42
45 30 70 -28z m268 -773 c2 -16 14 -91 27 -165 13 -74 23 -143 23 -153 -1 -16
-2 -16 -21 0 -11 10 -17 12 -13 5 7 -11 4 -11 -12 -1 -12 7 -19 16 -16 20 2 4
-5 5 -16 2 -12 -3 -20 0 -20 6 0 7 -4 10 -9 7 -5 -4 -11 -2 -13 3 -1 6 -22 18
-44 28 l-41 18 56 133 c47 112 59 132 76 130 14 -2 21 -12 23 -33z m2002 -505
c9 -17 -37 -73 -377 -457 -406 -460 -520 -586 -534 -591 -5 -2 -20 9 -34 24
-14 15 -25 23 -25 18 0 -5 -4 -4 -8 2 -4 6 -50 46 -102 89 -52 42 -95 82 -94
89 2 25 508 702 550 735 35 28 33 27 328 71 303 46 283 44 296 20z m580 -30
c85 -11 159 -20 163 -20 5 0 7 -10 5 -23 -2 -16 -167 -181 -497 -499 l-495
-476 -42 36 c-24 19 -41 39 -38 44 3 4 -1 8 -8 8 -7 0 -30 19 -51 43 -59 66
-101 106 -105 102 -2 -2 -13 6 -23 16 -20 20 -19 21 92 147 273 310 532 594
555 608 75 50 149 52 444 14z m620 -175 c129 -52 235 -99 235 -104 0 -9 -1123
-933 -1553 -1279 -139 -111 -153 -120 -164 -103 -7 10 -53 62 -103 115 -49 54
-94 104 -98 112 -6 10 9 34 52 82 141 159 1213 1198 1284 1245 26 17 54 27 77
27 21 0 131 -39 270 -95z m-2017 41 c-4 -6 -45 -62 -91 -124 -90 -119 -86
-117 -130 -74 -7 6 -19 12 -26 12 -7 0 -25 11 -39 24 -15 14 -35 27 -46 31
-10 3 -21 12 -24 19 -8 19 332 148 350 134 7 -6 10 -15 6 -22z m2590 -375
l217 -164 -143 -98 c-1433 -992 -1452 -1005 -1469 -995 -9 6 -15 12 -13 15 3
2 -4 11 -15 18 -11 8 -18 18 -15 22 2 5 -8 21 -22 37 -27 28 -29 32 -32 54 0
6 -8 10 -17 10 -8 0 -13 4 -10 9 4 5 -13 29 -36 52 -24 24 -36 39 -28 35 8 -5
3 4 -11 20 l-27 29 692 566 c380 311 696 563 702 560 6 -3 109 -80 227 -170z
m-5809 -46 c563 -59 1133 -232 1638 -498 112 -59 118 -64 118 -93 l0 -32 -162
-31 c-90 -17 -208 -38 -263 -46 -201 -32 -420 -78 -504 -106 -83 -28 -87 -29
-126 -13 -22 9 -135 40 -250 69 l-211 53 -99 99 c-55 54 -183 168 -285 252
-180 150 -380 341 -380 363 0 15 323 4 524 -17z m6275 -409 c150 -194 168
-221 153 -231 -27 -19 -1684 -976 -1915 -1106 -114 -65 -213 -116 -220 -113
-7 3 -43 57 -82 121 -38 63 -78 124 -88 135 -10 10 -17 23 -15 29 2 5 31 28
65 51 34 24 142 99 239 168 296 207 1688 1169 1690 1167 1 -1 79 -101 173
-221z m-6250 -222 c96 -82 185 -158 199 -170 15 -12 22 -26 18 -33 -5 -8 -33
11 -84 56 -136 120 -337 307 -341 318 -5 12 -10 17 208 -171z m1929 -68 c332
-201 593 -405 868 -680 262 -263 490 -550 671 -847 39 -63 41 -77 18 -107 -3
-4 -188 51 -550 163 -148 46 -302 93 -342 104 -64 19 -78 28 -130 84 -73 79
-245 250 -301 300 -23 21 -44 51 -47 65 -20 100 -76 282 -150 488 -100 277
-165 507 -137 491 4 -3 49 -30 100 -61z m-138 -261 c42 -126 91 -259 109 -293
40 -80 84 -213 104 -317 18 -92 32 -245 22 -245 -22 0 -40 51 -79 232 -86 394
-84 388 -140 493 -29 55 -65 130 -80 167 -37 86 -64 112 -119 113 -23 0 -141
-17 -262 -37 -241 -41 -552 -88 -575 -88 -50 0 101 54 250 89 47 11 182 34
300 51 118 16 249 39 290 49 41 11 81 18 89 18 9 -1 41 -83 91 -232z m4779
-14 c58 -137 102 -253 100 -258 -4 -9 -1758 -843 -1772 -843 -4 0 -5 5 -2 10
3 6 0 12 -7 15 -8 3 -15 15 -15 28 -1 12 -7 23 -13 25 -5 2 -8 8 -4 13 3 5 0
9 -6 9 -6 0 -8 5 -5 10 3 6 2 10 -2 10 -5 0 -17 14 -26 30 -10 17 -15 30 -12
30 4 0 -1 7 -9 16 -9 8 -14 20 -11 25 4 5 1 9 -5 9 -6 0 -8 5 -5 10 3 6 1 10
-5 10 -6 0 -9 4 -6 9 4 5 2 11 -4 13 -5 1 -11 13 -13 25 -2 12 -7 26 -12 30
-4 5 -5 2 0 -6 5 -9 4 -12 -3 -8 -5 4 -9 14 -8 22 1 9 368 227 866 515 476
275 867 500 870 500 3 0 52 -112 109 -249z m-4975 48 c19 -9 41 -48 94 -168
68 -151 75 -186 29 -143 -12 12 -25 21 -30 21 -4 0 -17 7 -30 16 -75 53 -128
84 -329 192 -49 25 -88 50 -88 54 0 7 216 36 287 38 23 0 53 -4 67 -10z m5116
-421 c0 -7 9 -81 19 -164 11 -82 23 -195 27 -250 l7 -99 -44 -40 c-40 -37
-113 -66 -829 -337 -432 -163 -879 -332 -995 -374 -115 -42 -215 -79 -221 -81
-6 -2 -14 4 -17 14 -21 65 -72 185 -114 271 -9 17 -13 35 -10 38 6 6 268 135
487 240 837 400 1668 792 1678 793 6 1 12 -5 12 -11z m59 -710 c-57 -359 -81
-484 -94 -504 -8 -13 -28 -30 -43 -38 -32 -17 -1341 -396 -1366 -396 -10 0
-15 4 -12 9 4 5 2 11 -3 13 -5 1 -12 17 -14 33 -3 17 -15 54 -27 83 -11 29
-17 58 -14 64 5 7 2 8 -5 4 -8 -5 -11 -3 -10 5 1 8 -3 27 -9 42 -11 25 -22 71
-26 105 0 9 284 121 814 322 448 170 815 309 816 309 1 1 -3 -23 -7 -51z
m-4205 -79 c113 -23 266 -74 468 -153 117 -47 249 -94 293 -107 44 -12 81 -23
83 -25 2 -1 -4 -33 -13 -70 -9 -38 -34 -182 -55 -319 -40 -260 -80 -426 -131
-555 -30 -73 -68 -144 -75 -138 -1 2 12 44 31 94 48 128 82 263 105 422 27
184 50 387 50 440 0 84 -7 90 -242 190 -341 146 -477 190 -658 213 -121 16
-119 34 2 25 50 -4 114 -12 142 -17z m511 -328 c106 -44 145 -76 145 -121 0
-14 -7 -95 -16 -180 l-17 -156 -57 111 c-51 100 -97 179 -210 362 l-38 62 46
-18 c26 -11 92 -37 147 -60z m524 -7 c210 -277 453 -1039 546 -1710 18 -128
31 -444 21 -499 l-7 -38 -111 109 c-60 60 -163 177 -228 259 -127 161 -218
260 -317 345 -49 41 -63 59 -63 80 0 34 -70 309 -106 414 l-26 79 25 86 c36
124 52 200 87 429 51 338 90 512 116 512 7 0 36 -30 63 -66z m3035 -257 c17
-12 12 -27 -79 -227 -123 -271 -139 -302 -165 -318 -17 -10 -908 -197 -1040
-218 -19 -3 -120 -23 -225 -44 -108 -21 -192 -34 -196 -29 -10 17 -81 330 -76
335 10 10 1722 511 1753 513 5 1 18 -5 28 -12z m-324 -692 c10 -12 0 -30 -62
-107 -190 -236 -303 -367 -330 -384 -15 -10 -457 -62 -459 -54 -1 3 -3 23 -6
45 -8 75 -11 100 -13 100 -2 0 -12 80 -11 100 0 11 -4 22 -9 25 -5 3 -10 30
-12 59 l-3 55 425 87 c234 48 435 87 446 88 12 0 27 -6 34 -14z m-2969 -561
c84 -57 247 -224 352 -361 126 -166 130 -169 -264 212 -219 212 -243 252 -88
149z m2427 -72 c-6 -15 -263 -245 -323 -290 -113 -84 -243 -136 -355 -144
l-45 -3 -1 35 c-1 19 -4 73 -8 120 -4 47 -9 113 -12 147 l-5 62 43 5 c50 7
372 42 563 61 72 7 134 13 138 14 5 0 7 -3 5 -7z m-2044 -551 c100 -123 115
-146 104 -159 -7 -9 -62 -73 -122 -142 -60 -69 -109 -126 -110 -127 -1 -1 -1
131 -1 292 0 162 3 291 6 287 4 -4 59 -72 123 -151z m275 -104 l33 -36 -92
-93 c-50 -51 -80 -77 -66 -57 74 102 73 189 -1 288 -24 32 -21 30 32 -16 33
-28 75 -67 94 -86z m167 -124 c11 -91 -3 -386 -26 -538 -92 -609 -319 -1299
-542 -1647 -27 -42 -54 -81 -61 -86 -16 -14 -78 261 -112 500 -28 194 -54 318
-92 441 -26 87 -26 88 -9 142 9 30 17 57 17 60 0 2 6 23 14 45 15 42 64 228
71 265 3 21 14 73 18 90 2 6 50 57 107 115 58 58 172 188 254 290 140 173 328
380 346 380 4 0 11 -26 15 -57z m1043 -193 c88 -12 126 -32 286 -157 167 -130
285 -233 285 -249 0 -25 -24 -26 -192 -5 -89 11 -235 30 -323 41 -88 11 -180
22 -203 26 l-44 6 5 46 c8 70 21 275 18 290 -2 15 61 16 168 2z m-1520 -174
c10 -12 -15 -38 -136 -146 -172 -153 -190 -167 -204 -153 -7 7 26 44 103 114
62 57 135 125 163 151 56 53 58 54 74 34z m2001 -347 c96 -11 192 -25 212 -30
42 -11 74 -45 281 -303 113 -141 134 -172 126 -188 -5 -10 -17 -18 -27 -18 -9
1 -210 40 -447 89 -433 88 -448 93 -423 127 4 6 8 22 7 35 -1 25 5 73 18 136
4 21 6 44 4 51 -1 8 3 20 10 28 6 7 9 21 5 29 -3 8 -3 28 0 45 5 25 10 28 33
25 14 -3 105 -14 201 -26z m-570 -408 c85 -17 196 -38 245 -46 235 -41 975
-199 1011 -216 36 -17 47 -30 81 -102 81 -168 206 -457 200 -464 -6 -6 -954
263 -1452 412 -115 35 -243 73 -284 85 -85 25 -81 2 -32 200 17 69 34 135 36
148 4 16 11 22 23 18 9 -3 87 -19 172 -35z m-1934 -117 c63 -134 107 -305 149
-576 20 -128 45 -273 56 -322 11 -49 18 -90 17 -91 -2 -1 -100 -34 -218 -75
-118 -40 -258 -92 -310 -115 -175 -78 -362 -125 -494 -125 l-61 1 23 19 c13
11 40 24 60 29 304 75 502 121 522 122 14 0 104 39 200 87 137 69 178 93 188
115 11 24 10 53 -8 200 -53 425 -78 547 -148 732 -14 39 -27 76 -28 83 -5 30
11 5 52 -84z m3159 -731 c297 -88 322 -102 350 -196 16 -54 79 -462 73 -475
-3 -9 -1610 597 -1619 610 -7 11 1 68 10 68 4 0 8 10 8 22 1 13 6 32 11 43 10
23 32 85 35 100 1 6 6 13 10 16 5 4 10 18 10 33 1 14 6 26 11 26 4 0 6 6 3 14
-3 8 -3 17 1 21 4 4 8 11 8 16 1 5 2 11 3 13 1 3 669 -188 1086 -311z m-3130
-28 c4 -66 3 -97 -7 -115 -10 -18 -54 -43 -167 -93 -84 -37 -155 -66 -157 -64
-2 2 9 21 26 42 16 21 30 41 30 46 0 4 6 14 13 21 20 20 130 212 184 321 l48
98 12 -83 c6 -46 14 -123 18 -173z m1517 11 c35 -14 126 -48 203 -76 77 -29
248 -92 380 -142 132 -50 496 -187 809 -304 416 -156 577 -221 598 -241 48
-46 52 -77 29 -220 -11 -71 -25 -175 -32 -233 -6 -58 -15 -109 -19 -113 -7 -8
-1261 582 -1830 860 -129 64 -259 126 -288 139 l-52 24 14 32 c56 130 104 247
110 271 3 15 8 27 11 27 3 0 33 -11 67 -24z m-1232 -353 c-1 -5 -33 -61 -73
-125 -374 -609 -868 -1109 -1479 -1496 -92 -59 -130 -73 -142 -54 -11 18 65
275 121 407 79 185 97 242 133 415 l30 145 78 70 c77 70 274 269 309 313 13
16 39 27 91 38 74 15 250 74 530 178 133 49 352 114 390 116 6 0 12 -3 12 -7z
m2290 -663 c476 -226 869 -415 873 -419 4 -4 -38 -121 -95 -260 -81 -198 -106
-250 -118 -246 -26 10 -1694 977 -1709 990 -9 9 -11 20 -6 32 5 10 7 21 7 26
-1 4 3 7 8 7 6 0 10 9 10 19 0 10 7 21 15 25 8 3 15 15 15 26 0 11 5 20 11 20
5 0 7 5 4 10 -3 6 -2 10 4 10 6 0 15 18 21 39 5 21 17 42 25 45 8 3 15 17 15
31 0 15 4 23 10 20 6 -3 7 1 4 9 -3 9 -1 16 6 16 6 0 9 4 5 9 -3 6 2 8 12 6
10 -2 407 -189 883 -415z m-1432 166 c1087 -622 2051 -1180 2052 -1188 0 -9
-334 -443 -341 -443 -5 0 -1647 1137 -1856 1285 -92 66 -129 98 -123 106 6 6
7 14 3 17 -3 4 1 7 10 7 9 0 16 3 15 8 -4 10 145 251 155 252 4 0 42 -20 85
-44z m-2341 -118 c-8 -129 -46 -282 -104 -413 -24 -55 -78 -199 -120 -320 -41
-121 -79 -224 -83 -229 -4 -4 -40 -1 -80 8 -40 9 -185 34 -323 56 -291 45
-442 83 -581 148 -107 50 -116 69 -13 28 160 -64 405 -113 755 -152 122 -14
166 -15 185 -7 18 8 48 60 116 195 50 100 91 195 91 210 0 15 16 75 36 135 44
135 80 280 89 358 6 54 18 85 33 85 3 0 2 -46 -1 -102z m-323 -580 c-65 -157
-73 -170 -113 -190 -29 -14 -43 -13 -159 8 -70 13 -135 23 -146 24 -10 0 26
23 80 51 55 29 106 57 114 63 8 6 26 17 39 24 13 8 39 22 57 32 48 27 118 72
124 79 4 6 52 39 57 40 1 1 -23 -59 -53 -131z m3507 -454 c434 -301 789 -549
789 -553 0 -3 -24 -23 -53 -43 -28 -20 -124 -89 -212 -152 -88 -64 -169 -116
-180 -116 -11 1 -30 6 -42 13 -12 7 -316 254 -677 551 l-656 538 22 37 c12 20
30 42 40 49 10 7 18 20 18 28 0 8 5 14 10 14 6 0 15 11 20 25 5 14 14 25 20
25 6 0 9 4 5 9 -3 6 4 15 15 21 11 6 18 15 15 21 -4 5 1 12 9 15 9 3 16 13 16
21 0 8 9 17 20 20 11 3 17 9 14 14 -3 5 0 9 6 9 7 0 367 -246 801 -546z
m-1388 396 c34 -27 305 -248 602 -491 297 -243 651 -532 787 -643 136 -110
247 -204 248 -207 0 -6 -78 -38 -335 -136 -184 -70 -205 -72 -262 -30 -16 12
-266 249 -554 527 -678 654 -789 762 -789 771 0 4 27 36 61 70 33 35 84 92
112 126 29 35 56 63 60 63 5 0 36 -22 70 -50z m-3673 -266 c0 -9 -301 -318
-314 -323 -6 -2 59 70 144 161 143 153 170 179 170 162z m2977 -348 c4 -8 33
-40 63 -73 82 -87 804 -904 813 -920 14 -23 -2 -53 -28 -53 -14 0 -140 18
-281 40 -142 22 -261 40 -265 40 -29 0 -171 180 -544 688 l-47 63 29 27 c16
15 68 59 117 97 49 39 96 78 105 87 20 21 28 22 38 4z m1252 -571 c341 -329
410 -400 395 -406 -22 -9 -491 -59 -547 -59 -50 0 -53 3 -426 425 l-308 349
35 38 c19 20 39 35 43 33 4 -3 47 38 95 90 48 52 93 95 101 95 8 0 11 5 7 13
-4 6 38 -31 92 -84 55 -53 285 -275 513 -494z m-4791 -22 c-10 -2 -26 -2 -35
0 -10 3 -2 5 17 5 19 0 27 -2 18 -5z m3531 -165 c53 -71 79 -113 75 -123 -4
-10 -12 -14 -23 -9 -9 3 -79 29 -156 57 -77 29 -142 55 -143 59 -2 5 -9 5 -15
1 -7 -3 -1 6 12 20 13 15 28 24 32 21 4 -2 13 5 19 16 6 11 17 20 25 20 8 0
15 5 15 12 0 6 3 8 6 5 4 -3 18 3 32 14 14 11 29 18 33 17 4 -2 44 -51 88
-110z m-1464 -328 c37 -85 84 -193 105 -240 103 -233 170 -402 176 -447 7 -59
-24 -159 -134 -423 -106 -256 -75 -301 -333 482 l-216 653 31 13 c17 7 85 33
151 58 66 24 127 48 135 53 8 5 15 8 16 7 1 0 32 -71 69 -156z m-887 -337
c296 -1171 402 -1610 397 -1645 -9 -52 -32 -77 -149 -166 -55 -42 -145 -111
-200 -155 -54 -43 -100 -76 -102 -74 -3 3 -236 1444 -317 1959 l-33 217 55 12
c31 6 103 21 161 34 58 13 112 24 120 24 12 1 28 -48 68 -206z m1295 160 c-43
-280 -59 -342 -82 -317 -5 5 -34 66 -64 136 -47 107 -53 129 -41 139 8 6 14 8
14 3 0 -5 4 -3 9 4 4 7 14 14 22 15 8 2 21 7 29 12 14 10 98 43 112 44 4 1 4
-16 1 -36z m-2253 -105 c0 -7 9 -112 20 -233 11 -121 45 -524 75 -895 30 -371
65 -788 77 -926 11 -137 18 -263 14 -278 -13 -52 -56 -83 -122 -91 -144 -16
-381 -46 -402 -50 l-22 -5 0 1239 0 1240 83 4 c212 8 277 7 277 -5z m1637
-588 c78 -233 147 -447 153 -475 22 -105 3 -142 -214 -430 l-121 -159 -167
674 c-92 371 -168 684 -170 695 -2 11 2 20 9 20 6 0 15 3 19 8 4 4 22 7 40 7
18 0 35 4 38 8 2 4 19 9 37 10 18 2 36 7 39 13 4 5 24 12 45 14 22 3 44 10 49
15 6 6 23 10 38 10 15 0 28 4 28 9 0 5 8 8 17 7 13 -2 51 -103 160 -426z
m-1107 194 c0 -9 136 -854 196 -1218 47 -282 73 -471 70 -491 -4 -17 -17 -42
-30 -54 -21 -20 -466 -214 -474 -206 -2 2 -38 437 -80 967 l-77 964 25 1 c24
0 110 10 175 19 17 2 49 5 72 7 23 2 45 5 47 8 5 5 76 7 76 3z"/>
<path d="M0 18735 c0 -1977 4 -3595 8 -3595 40 0 264 230 351 360 142 212 228
451 256 708 4 34 10 62 14 62 4 0 44 -47 90 -105 172 -217 371 -366 616 -464
114 -45 272 -88 364 -97 84 -9 101 7 145 146 63 193 80 295 80 480 0 183 -10
239 -98 547 l-43 152 66 -26 c257 -98 385 -124 612 -124 158 -1 288 17 428 58
126 36 180 62 196 94 20 37 19 66 -5 174 -81 367 -265 656 -575 906 l-80 64
55 8 c404 60 666 179 913 416 143 137 177 182 177 236 0 43 -1 45 -133 163
-330 297 -421 348 -844 467 -73 21 -133 41 -133 45 0 4 40 40 89 79 166 132
309 307 403 494 69 139 148 404 148 500 0 56 -29 82 -133 116 -206 69 -422 97
-620 81 -175 -14 -290 -43 -488 -120 -92 -36 -97 -37 -89 -17 4 12 25 63 45
112 125 309 145 648 55 975 -57 207 -79 236 -175 227 -143 -14 -390 -98 -540
-184 -172 -98 -303 -212 -440 -383 l-90 -111 -17 120 c-39 280 -132 508 -293
723 -63 84 -252 275 -293 297 l-22 12 0 -3596z m177 3287 c163 -187 267 -402
308 -637 8 -46 17 -150 21 -232 4 -81 12 -169 19 -194 l11 -47 -30 9 c-85 24
-341 60 -451 63 -20 1 -20 9 -23 589 l-2 589 40 -32 c22 -18 70 -66 107 -108z
m1450 -324 c-13 -24 -127 -221 -252 -438 -184 -320 -304 -525 -320 -548 -2 -2
-49 19 -106 46 -115 54 -233 101 -323 129 l-58 17 25 21 c13 11 50 63 82 116
188 317 435 526 750 639 75 26 183 56 218 59 5 1 -2 -18 -16 -41z m159 -176
c52 -205 52 -414 -1 -596 -30 -104 -47 -146 -135 -340 -39 -87 -76 -179 -83
-205 l-12 -49 -65 61 c-77 71 -141 121 -260 202 l-88 61 16 29 c11 22 525 914
570 990 8 13 31 -45 58 -153z m879 -957 c90 -14 272 -62 264 -70 -8 -6 -957
-554 -995 -573 l-40 -20 -29 46 c-44 71 -169 233 -237 306 l-60 66 32 0 c21 0
65 19 120 51 302 174 630 241 945 194z m314 -184 c11 -7 1 -39 -49 -162 -35
-85 -79 -185 -98 -224 -111 -223 -295 -411 -545 -559 -53 -31 -106 -70 -120
-87 l-24 -31 -17 63 c-25 86 -75 215 -130 334 -26 55 -44 101 -39 103 4 2 226
131 493 287 267 156 492 283 500 284 8 0 21 -3 29 -8z m-548 -1102 c265 -27
499 -107 694 -239 84 -57 234 -187 258 -224 l17 -26 -588 0 -589 0 -7 88 c-9
120 -16 175 -32 257 -17 92 -22 113 -29 136 -6 18 -1 19 83 19 50 0 136 -5
193 -11z m960 -628 c-19 -35 -175 -172 -264 -232 -213 -143 -427 -210 -717
-224 -121 -6 -190 -15 -242 -31 -13 -4 -16 0 -12 18 28 133 32 152 43 228 6
36 13 109 17 163 l7 97 589 0 c574 0 588 0 579 -19z m-1204 -556 c20 -19 65
-51 100 -71 103 -57 253 -176 341 -268 159 -168 275 -381 332 -609 12 -49 20
-90 18 -92 -2 -2 -1014 579 -1026 589 -1 2 22 55 52 118 30 64 74 172 98 242
23 69 44 126 46 126 2 0 19 -16 39 -35z m258 -850 c253 -146 464 -270 469
-275 10 -10 -92 -43 -212 -67 -62 -12 -133 -17 -247 -17 -179 1 -293 20 -452
75 -148 51 -433 200 -405 210 21 8 172 195 233 288 l64 98 45 -23 c25 -12 252
-142 505 -289z m-807 -317 c144 -288 177 -418 176 -693 0 -200 -16 -310 -61
-414 l-19 -44 -21 34 c-80 132 -556 964 -560 978 -3 13 12 27 54 53 79 49 264
196 308 245 11 13 22 23 26 23 3 0 46 -82 97 -182z m-266 -723 c140 -242 260
-450 266 -461 l12 -22 -68 15 c-255 57 -487 183 -662 362 -41 42 -113 133
-160 201 -47 69 -106 150 -132 182 -27 31 -48 61 -48 65 0 4 53 25 118 46 64
21 171 64 237 96 l120 57 31 -50 c18 -28 146 -249 286 -491z m-836 308 c-4
-16 -11 -91 -17 -168 -27 -378 -115 -625 -305 -864 -66 -81 -156 -171 -174
-171 -7 0 -10 184 -10 579 l0 578 88 6 c126 10 174 17 297 42 61 13 114 23
119 24 4 1 5 -11 2 -26z"/>
</g>
</svg>
