<?xml version="1.0" encoding="utf-8"?>
<!-- Generator: Adobe Illustrator 27.5.0, SVG Export Plug-In . SVG Version: 6.00 Build 0)  -->
<svg version="1.1" xmlns="http://www.w3.org/2000/svg" xmlns:xlink="http://www.w3.org/1999/xlink" x="0px" y="0px"
	 viewBox="0 0 750 500" style="enable-background:new 0 0 750 500;" xml:space="preserve">
<g id="BACKGROUND">
	<rect style="fill:#131D2D;" width="750" height="500"/>
</g>
<g id="OBJECTS">
	<g>
		<defs>
			<rect id="SVGID_1_" width="750" height="500"/>
		</defs>
		<clipPath id="SVGID_00000048496395652844745210000002631978424214062783_">
			<use xlink:href="#SVGID_1_"  style="overflow:visible;"/>
		</clipPath>
		<g style="clip-path:url(#SVGID_00000048496395652844745210000002631978424214062783_);">
			<path style="fill:#0C131E;" d="M694.589,552.545l-113.802-30.493L550.294,408.25l83.31-83.31l113.802,30.493l30.493,113.803
				L694.589,552.545z"/>
		</g>
		<g style="clip-path:url(#SVGID_00000048496395652844745210000002631978424214062783_);">
			<path style="fill:#0C131E;" d="M128.226,587.836L14.424,557.342L-16.069,443.54l83.31-83.31l113.802,30.493l30.493,113.803
				L128.226,587.836z"/>
		</g>
		
			<rect x="225.155" y="-229.08" transform="matrix(0.2635 -0.9647 0.9647 0.2635 273.3671 275.5289)" style="clip-path:url(#SVGID_00000048496395652844745210000002631978424214062783_);fill:#0C131E;" width="183.934" height="375.642"/>
		
			<path style="clip-path:url(#SVGID_00000048496395652844745210000002631978424214062783_);fill:none;stroke:#301E8A;stroke-width:11;stroke-miterlimit:10;" d="
			M-36.803,267.407c2.714,0,333.846,90.473,333.846,90.473l36.738,143.333"/>
		
			<path style="clip-path:url(#SVGID_00000048496395652844745210000002631978424214062783_);fill:none;stroke:#301E8A;stroke-miterlimit:10;" d="
			M-106.98,374.103c2.714,0,333.846,90.473,333.846,90.473l36.738,143.333"/>
		
			<path style="clip-path:url(#SVGID_00000048496395652844745210000002631978424214062783_);fill:none;stroke:#301E8A;stroke-miterlimit:10;" d="
			M-100.414,367.536c2.714,0,333.846,90.473,333.846,90.473l36.738,143.333"/>
		<g style="clip-path:url(#SVGID_00000048496395652844745210000002631978424214062783_);">
			
				<linearGradient id="SVGID_00000137825223465823088090000012531500443061390478_" gradientUnits="userSpaceOnUse" x1="130.0622" y1="559.2985" x2="243.865" y2="362.1863">
				<stop  offset="0.0012" style="stop-color:#00FF7E"/>
				<stop  offset="1" style="stop-color:#784BFF"/>
			</linearGradient>
			<path style="fill:url(#SVGID_00000137825223465823088090000012531500443061390478_);" d="M217.456,574.545l-113.802-30.493
				L73.161,430.249l83.31-83.31l113.802,30.493l30.493,113.803L217.456,574.545z M114.27,533.437l99.302,26.608l72.694-72.694
				l-26.608-99.303l-99.302-26.608l-72.694,72.694L114.27,533.437z"/>
		</g>
		<g style="clip-path:url(#SVGID_00000048496395652844745210000002631978424214062783_);">
			<path style="fill:none;stroke:#301E8A;stroke-width:11;stroke-miterlimit:10;" d="M529.802,515.755l-51.128-190.812
				L618.358,185.26l190.81,51.128"/>
		</g>
		
			<polyline style="clip-path:url(#SVGID_00000048496395652844745210000002631978424214062783_);fill:none;stroke:#301E8A;stroke-width:11;stroke-miterlimit:10;" points="
			442.606,-138.622 320.169,307.89 -126.343,185.454 		"/>
		
			<polyline style="clip-path:url(#SVGID_00000048496395652844745210000002631978424214062783_);fill:none;stroke:#301E8A;stroke-miterlimit:10;" points="
			455.926,-116.802 333.489,329.711 -113.023,207.274 		"/>
		<g style="clip-path:url(#SVGID_00000048496395652844745210000002631978424214062783_);">
			<g>
				<path style="fill:none;stroke:#301E8A;stroke-miterlimit:10;" d="M762.046,143.209L577.333,92.561l50.648-184.714"/>
			</g>
			<g>
				<path style="fill:none;stroke:#301E8A;stroke-miterlimit:10;" d="M775.172,136.209L590.458,85.561l50.648-184.714"/>
			</g>
			<g>
				<path style="fill:none;stroke:#301E8A;stroke-miterlimit:10;" d="M788.297,129.209L603.584,78.56l50.648-184.714"/>
			</g>
			<g>
				<path style="fill:none;stroke:#301E8A;stroke-miterlimit:10;" d="M801.423,122.208L616.71,71.56l50.648-184.714"/>
			</g>
			<g>
				
					<linearGradient id="SVGID_00000062182885678761121910000018414830332568040862_" gradientUnits="userSpaceOnUse" x1="642.1902" y1="-13.8591" x2="839.5966" y2="-13.8591">
					<stop  offset="0.0012" style="stop-color:#00FF7E"/>
					<stop  offset="1" style="stop-color:#784BFF"/>
				</linearGradient>
				
					<path style="fill:none;stroke:url(#SVGID_00000062182885678761121910000018414830332568040862_);stroke-width:17;stroke-miterlimit:10;" d="
					M837.349,100.847L652.635,50.199l50.648-184.714"/>
			</g>
		</g>
		<g style="clip-path:url(#SVGID_00000048496395652844745210000002631978424214062783_);">
			<path style="fill:none;stroke:#301E8A;stroke-miterlimit:10;" d="M419.136-175.848L344.179,97.516L-27.786-4.151"/>
		</g>
		<g style="clip-path:url(#SVGID_00000048496395652844745210000002631978424214062783_);">
			<path style="fill:none;stroke:#301E8A;stroke-miterlimit:10;" d="M413.74-184.481L338.784,88.883L-33.182-12.784"/>
		</g>
		<g style="clip-path:url(#SVGID_00000048496395652844745210000002631978424214062783_);">
			<path style="fill:none;stroke:#301E8A;stroke-miterlimit:10;" d="M408.345-193.115L333.388,80.25L-38.578-21.418"/>
		</g>
		<g style="clip-path:url(#SVGID_00000048496395652844745210000002631978424214062783_);">
			<path style="fill:none;stroke:#301E8A;stroke-miterlimit:10;" d="M402.949-201.748L327.992,71.617L-43.973-30.051"/>
		</g>
		<g style="clip-path:url(#SVGID_00000048496395652844745210000002631978424214062783_);">
			<g>
				<path style="fill:none;stroke:#301E8A;stroke-miterlimit:10;" d="M770.81,306.307L370.063,196.639"/>
			</g>
			<g>
				<path style="fill:none;stroke:#301E8A;stroke-miterlimit:10;" d="M769.522,310.984L368.775,201.316"/>
			</g>
			<g>
				<path style="fill:none;stroke:#301E8A;stroke-miterlimit:10;" d="M768.234,315.661L367.487,205.994"/>
			</g>
			<g>
				<path style="fill:none;stroke:#301E8A;stroke-miterlimit:10;" d="M766.946,320.339L366.199,210.671"/>
			</g>
		</g>
		<g style="clip-path:url(#SVGID_00000048496395652844745210000002631978424214062783_);">
			<g>
				<path style="fill:none;stroke:#301E8A;stroke-miterlimit:10;" d="M232.563,156.698l-250.29-68.73"/>
			</g>
			<g>
				<path style="fill:none;stroke:#301E8A;stroke-miterlimit:10;" d="M231.276,161.375l-250.29-68.73"/>
			</g>
			<g>
				<path style="fill:none;stroke:#301E8A;stroke-miterlimit:10;" d="M229.988,166.053l-250.29-68.73"/>
			</g>
			<g>
				<path style="fill:none;stroke:#301E8A;stroke-miterlimit:10;" d="M228.7,170.73L-21.59,102"/>
			</g>
		</g>
		<g style="clip-path:url(#SVGID_00000048496395652844745210000002631978424214062783_);">
			<path style="fill:none;stroke:#301E8A;stroke-width:11;stroke-miterlimit:10;" d="M220.522,200.342l-250.164-68.729"/>
		</g>
		
			<linearGradient id="SVGID_00000178920182986778117180000011223382292410064042_" gradientUnits="userSpaceOnUse" x1="-36.5345" y1="62.0144" x2="578.0743" y2="62.0144">
			<stop  offset="0.0012" style="stop-color:#00FF7E"/>
			<stop  offset="1" style="stop-color:#784BFF"/>
		</linearGradient>
		
			<polyline style="clip-path:url(#SVGID_00000048496395652844745210000002631978424214062783_);fill:none;stroke:url(#SVGID_00000178920182986778117180000011223382292410064042_);stroke-width:17;stroke-miterlimit:10;" points="
			-34.218,24.663 501.71,176.473 569.906,-60.58 		"/>
		<g style="clip-path:url(#SVGID_00000048496395652844745210000002631978424214062783_);">
			
				<linearGradient id="SVGID_00000123431413415582571560000002057539526990769562_" gradientUnits="userSpaceOnUse" x1="-57.7108" y1="373.1147" x2="424.9892" y2="373.1147">
				<stop  offset="0.0012" style="stop-color:#00FF7E"/>
				<stop  offset="1" style="stop-color:#784BFF"/>
			</linearGradient>
			
				<path style="fill:none;stroke:url(#SVGID_00000123431413415582571560000002057539526990769562_);stroke-width:17;stroke-miterlimit:10;" d="
				M-51.7,399.729l171.476-171.476l234.239,62.764l62.764,234.241"/>
		</g>
		<g style="clip-path:url(#SVGID_00000048496395652844745210000002631978424214062783_);">
			
				<linearGradient id="SVGID_00000019654910681721974650000005445733692494334357_" gradientUnits="userSpaceOnUse" x1="620.1055" y1="477.0474" x2="733.9083" y2="279.9352">
				<stop  offset="0.0012" style="stop-color:#00FF7E"/>
				<stop  offset="1" style="stop-color:#784BFF"/>
			</linearGradient>
			<path style="fill:url(#SVGID_00000019654910681721974650000005445733692494334357_);" d="M707.5,492.294l-113.802-30.493
				l-30.493-113.803l83.31-83.31l113.802,30.493l30.493,113.803L707.5,492.294z M604.313,451.186l99.302,26.608l72.694-72.694
				l-26.608-99.303l-99.302-26.608l-72.694,72.694L604.313,451.186z"/>
		</g>
		<g style="clip-path:url(#SVGID_00000048496395652844745210000002631978424214062783_);">
			
				<linearGradient id="SVGID_00000084528194481812547780000005784013865716447647_" gradientUnits="userSpaceOnUse" x1="416.1483" y1="324.3392" x2="811.6381" y2="324.3392">
				<stop  offset="0.0012" style="stop-color:#00FF7E"/>
				<stop  offset="1" style="stop-color:#784BFF"/>
			</linearGradient>
			
				<path style="fill:none;stroke:url(#SVGID_00000084528194481812547780000005784013865716447647_);stroke-width:17;stroke-miterlimit:10;" d="
				M480.722,520.271l-55.082-204.444l181.712-180.146l202.065,54.696"/>
		</g>
		<g style="clip-path:url(#SVGID_00000048496395652844745210000002631978424214062783_);">
			<path style="fill:#0C131E;" d="M308.201,253.341L211.19,226.74l26.601-97.012l97.012,26.601L308.201,253.341z M227.164,217.641
				l71.938,19.726l19.726-71.937l-71.937-19.726L227.164,217.641z"/>
		</g>
	</g>
</g>
</svg>
